%TF.GenerationSoftware,KiCad,Pcbnew,8.0.9-8.0.9-0~ubuntu22.04.1*%
%TF.CreationDate,2025-03-21T08:59:58-04:00*%
%TF.ProjectId,WS_Wheel_PCB,57535f57-6865-4656-9c5f-5043422e6b69,rev?*%
%TF.SameCoordinates,Original*%
%TF.FileFunction,Copper,L4,Bot*%
%TF.FilePolarity,Positive*%
%FSLAX46Y46*%
G04 Gerber Fmt 4.6, Leading zero omitted, Abs format (unit mm)*
G04 Created by KiCad (PCBNEW 8.0.9-8.0.9-0~ubuntu22.04.1) date 2025-03-21 08:59:58*
%MOMM*%
%LPD*%
G01*
G04 APERTURE LIST*
G04 Aperture macros list*
%AMRoundRect*
0 Rectangle with rounded corners*
0 $1 Rounding radius*
0 $2 $3 $4 $5 $6 $7 $8 $9 X,Y pos of 4 corners*
0 Add a 4 corners polygon primitive as box body*
4,1,4,$2,$3,$4,$5,$6,$7,$8,$9,$2,$3,0*
0 Add four circle primitives for the rounded corners*
1,1,$1+$1,$2,$3*
1,1,$1+$1,$4,$5*
1,1,$1+$1,$6,$7*
1,1,$1+$1,$8,$9*
0 Add four rect primitives between the rounded corners*
20,1,$1+$1,$2,$3,$4,$5,0*
20,1,$1+$1,$4,$5,$6,$7,0*
20,1,$1+$1,$6,$7,$8,$9,0*
20,1,$1+$1,$8,$9,$2,$3,0*%
%AMFreePoly0*
4,1,22,0.945671,0.830970,1.026777,0.776777,1.080970,0.695671,1.100000,0.600000,1.100000,-0.600000,1.080970,-0.695671,1.026777,-0.776777,0.945671,-0.830970,0.850000,-0.850000,-0.450000,-0.850000,-0.545671,-0.830970,-0.626777,-0.776777,-1.026777,-0.376777,-1.080970,-0.295671,-1.100000,-0.200000,-1.100000,0.600000,-1.080970,0.695671,-1.026777,0.776777,-0.945671,0.830970,-0.850000,0.850000,
0.850000,0.850000,0.945671,0.830970,0.945671,0.830970,$1*%
G04 Aperture macros list end*
%TA.AperFunction,ComponentPad*%
%ADD10R,1.600000X1.600000*%
%TD*%
%TA.AperFunction,ComponentPad*%
%ADD11C,1.600000*%
%TD*%
%TA.AperFunction,ComponentPad*%
%ADD12R,1.300000X1.300000*%
%TD*%
%TA.AperFunction,ComponentPad*%
%ADD13C,1.300000*%
%TD*%
%TA.AperFunction,ComponentPad*%
%ADD14FreePoly0,0.000000*%
%TD*%
%TA.AperFunction,ComponentPad*%
%ADD15O,2.200000X1.700000*%
%TD*%
%TA.AperFunction,ComponentPad*%
%ADD16RoundRect,0.250000X-0.600000X0.600000X-0.600000X-0.600000X0.600000X-0.600000X0.600000X0.600000X0*%
%TD*%
%TA.AperFunction,ComponentPad*%
%ADD17C,1.700000*%
%TD*%
%TA.AperFunction,ComponentPad*%
%ADD18RoundRect,0.250000X0.600000X-0.600000X0.600000X0.600000X-0.600000X0.600000X-0.600000X-0.600000X0*%
%TD*%
%TA.AperFunction,ViaPad*%
%ADD19C,4.000000*%
%TD*%
%TA.AperFunction,ViaPad*%
%ADD20C,0.600000*%
%TD*%
%TA.AperFunction,Conductor*%
%ADD21C,0.200000*%
%TD*%
G04 APERTURE END LIST*
D10*
%TO.P,U1,1,GND*%
%TO.N,unconnected-(U1-GND-Pad1)*%
X118380000Y-70000000D03*
D11*
%TO.P,U1,2,0_RX1_CRX2_CS1*%
%TO.N,unconnected-(U1-0_RX1_CRX2_CS1-Pad2)*%
X120920000Y-70000000D03*
%TO.P,U1,3,1_TX1_CTX2_MISO1*%
%TO.N,unconnected-(U1-1_TX1_CTX2_MISO1-Pad3)*%
X123460000Y-70000000D03*
%TO.P,U1,4,2_OUT2*%
%TO.N,Net-(LS1-SS{slash})*%
X126000000Y-70000000D03*
%TO.P,U1,5,3_LRCLK2*%
%TO.N,Net-(LS2-SS{slash})*%
X128540000Y-70000000D03*
%TO.P,U1,6,4_BCLK2*%
%TO.N,Net-(LS4-SS{slash})*%
X131080000Y-70000000D03*
%TO.P,U1,7,5_IN2*%
%TO.N,Net-(LS3-SS{slash})*%
X133620000Y-70000000D03*
%TO.P,U1,8,6_OUT1D*%
%TO.N,Net-(C1-ENy)*%
X136160000Y-70000000D03*
%TO.P,U1,9,7_RX2_OUT1A*%
%TO.N,Net-(C1-DirAy)*%
X138700000Y-70000000D03*
%TO.P,U1,10,8_TX2_IN1*%
%TO.N,Net-(C1-DirBy)*%
X141240000Y-70000000D03*
%TO.P,U1,11,9_OUT1C*%
%TO.N,unconnected-(U1-9_OUT1C-Pad11)*%
X143780000Y-70000000D03*
%TO.P,U1,12,10_CS_MQSR*%
%TO.N,unconnected-(U1-10_CS_MQSR-Pad12)*%
X146320000Y-70000000D03*
%TO.P,U1,13,11_MOSI_CTX1*%
%TO.N,Net-(LS1-MOSI)*%
X148860000Y-70000000D03*
%TO.P,U1,14,12_MISO_MQSL*%
%TO.N,Net-(LS1-MISO)*%
X151400000Y-70000000D03*
%TO.P,U1,15,3V3*%
%TO.N,Net-(C1-3v3)*%
X153940000Y-70000000D03*
%TO.P,U1,16,24_A10_TX6_SCL2*%
%TO.N,Net-(C2-ENy)*%
X156480000Y-70000000D03*
%TO.P,U1,17,25_A11_RX6_SDA2*%
%TO.N,Net-(C2-DirAy)*%
X159020000Y-70000000D03*
%TO.P,U1,18,26_A12_MOSI1*%
%TO.N,Net-(C2-DirBy)*%
X161560000Y-70000000D03*
%TO.P,U1,19,27_A13_SCK1*%
%TO.N,Net-(C3-ENy)*%
X164100000Y-70000000D03*
%TO.P,U1,20,28_RX7*%
%TO.N,Net-(C3-DirAy)*%
X166640000Y-70000000D03*
%TO.P,U1,21,29_TX7*%
%TO.N,Net-(C3-DirBy)*%
X169180000Y-70000000D03*
%TO.P,U1,22,30_CRX3*%
%TO.N,Net-(C4-ENy)*%
X171720000Y-70000000D03*
%TO.P,U1,23,31_CTX3*%
%TO.N,Net-(C4-DirAy)*%
X174260000Y-70000000D03*
%TO.P,U1,24,32_OUT1B*%
%TO.N,Net-(C4-DirBy)*%
X176800000Y-70000000D03*
%TO.P,U1,25,33_MCLK2*%
%TO.N,unconnected-(U1-33_MCLK2-Pad25)*%
X176800000Y-54760000D03*
%TO.P,U1,26,34_RX8*%
%TO.N,unconnected-(U1-34_RX8-Pad26)*%
X174260000Y-54760000D03*
%TO.P,U1,27,35_TX8*%
%TO.N,unconnected-(U1-35_TX8-Pad27)*%
X171720000Y-54760000D03*
%TO.P,U1,28,36_CS*%
%TO.N,unconnected-(U1-36_CS-Pad28)*%
X169180000Y-54760000D03*
%TO.P,U1,29,37_CS*%
%TO.N,unconnected-(U1-37_CS-Pad29)*%
X166640000Y-54760000D03*
%TO.P,U1,30,38_CS1_IN1*%
%TO.N,Net-(C3-DirBx)*%
X164100000Y-54760000D03*
%TO.P,U1,31,39_MISO1_OUT1A*%
%TO.N,Net-(C4-DirBx)*%
X161560000Y-54760000D03*
%TO.P,U1,32,40_A16*%
%TO.N,Net-(C4-DirAx)*%
X159020000Y-54760000D03*
%TO.P,U1,33,41_A17*%
%TO.N,Net-(C4-ENx)*%
X156480000Y-54760000D03*
%TO.P,U1,34,GND*%
%TO.N,Net-(C1-GND)*%
X153940000Y-54760000D03*
%TO.P,U1,35,13_SCK_LED*%
%TO.N,Net-(LS1-SCK)*%
X151400000Y-54760000D03*
%TO.P,U1,36,14_A0_TX3_SPDIF_OUT*%
%TO.N,unconnected-(U1-14_A0_TX3_SPDIF_OUT-Pad36)*%
X148860000Y-54760000D03*
%TO.P,U1,37,15_A1_RX3_SPDIF_IN*%
%TO.N,unconnected-(U1-15_A1_RX3_SPDIF_IN-Pad37)*%
X146320000Y-54760000D03*
%TO.P,U1,38,16_A2_RX4_SCL1*%
%TO.N,Net-(C3-DirAx)*%
X143780000Y-54760000D03*
%TO.P,U1,39,17_A3_TX4_SDA1*%
%TO.N,Net-(C3-ENx)*%
X141240000Y-54760000D03*
%TO.P,U1,40,18_A4_SDA*%
%TO.N,Net-(C2-DirBx)*%
X138700000Y-54760000D03*
%TO.P,U1,41,19_A5_SCL*%
%TO.N,Net-(C2-DirAx)*%
X136160000Y-54760000D03*
%TO.P,U1,42,20_A6_TX5_LRCLK1*%
%TO.N,Net-(C2-ENx)*%
X133620000Y-54760000D03*
%TO.P,U1,43,21_A7_RX5_BCLK1*%
%TO.N,Net-(C1-DirBx)*%
X131080000Y-54760000D03*
%TO.P,U1,44,22_A8_CTX1*%
%TO.N,Net-(C1-DirAx)*%
X128540000Y-54760000D03*
%TO.P,U1,45,23_A9_CRX1_MCLK1*%
%TO.N,Net-(C1-ENx)*%
X126000000Y-54760000D03*
%TO.P,U1,46,3V3*%
%TO.N,unconnected-(U1-3V3-Pad46)*%
X123460000Y-54760000D03*
%TO.P,U1,47,GND*%
%TO.N,Net-(J1-Pin_1)*%
X120920000Y-54760000D03*
%TO.P,U1,48,VIN*%
%TO.N,Net-(J1-Pin_2)*%
X118380000Y-54760000D03*
%TO.P,U1,49,VUSB*%
%TO.N,unconnected-(U1-VUSB-Pad49)*%
X120920000Y-57300000D03*
%TO.P,U1,50,VBAT*%
%TO.N,unconnected-(U1-VBAT-Pad50)*%
X164100000Y-67460000D03*
%TO.P,U1,51,3V3*%
%TO.N,unconnected-(U1-3V3-Pad51)*%
X164100000Y-64920000D03*
%TO.P,U1,52,GND*%
%TO.N,unconnected-(U1-GND-Pad52)*%
X164100000Y-62380000D03*
%TO.P,U1,53,PROGRAM*%
%TO.N,unconnected-(U1-PROGRAM-Pad53)*%
X164100000Y-59840000D03*
%TO.P,U1,54,ON_OFF*%
%TO.N,unconnected-(U1-ON_OFF-Pad54)*%
X164100000Y-57300000D03*
D10*
%TO.P,U1,55,5V*%
%TO.N,unconnected-(U1-5V-Pad55)*%
X124679200Y-66949200D03*
D11*
%TO.P,U1,56,D-*%
%TO.N,unconnected-(U1-D--Pad56)*%
X127219200Y-66949200D03*
%TO.P,U1,57,D+*%
%TO.N,unconnected-(U1-D+-Pad57)*%
X129759200Y-66949200D03*
%TO.P,U1,58,GND*%
%TO.N,unconnected-(U1-GND-Pad58)*%
X132299200Y-66949200D03*
%TO.P,U1,59,GND*%
%TO.N,unconnected-(U1-GND-Pad59)*%
X134839200Y-66949200D03*
D12*
%TO.P,U1,60,R+*%
%TO.N,unconnected-(U1-R+-Pad60)*%
X131350000Y-57198400D03*
D13*
%TO.P,U1,61,LED*%
%TO.N,unconnected-(U1-LED-Pad61)*%
X131350000Y-59198400D03*
%TO.P,U1,62,T-*%
%TO.N,unconnected-(U1-T--Pad62)*%
X131350000Y-61198400D03*
%TO.P,U1,63,T+*%
%TO.N,unconnected-(U1-T+-Pad63)*%
X133350000Y-61198400D03*
%TO.P,U1,64,GND*%
%TO.N,unconnected-(U1-GND-Pad64)*%
X133350000Y-59198400D03*
%TO.P,U1,65,R-*%
%TO.N,unconnected-(U1-R--Pad65)*%
X133350000Y-57198400D03*
%TO.P,U1,66,D-*%
%TO.N,unconnected-(U1-D--Pad66)*%
X119110000Y-61110000D03*
%TO.P,U1,67,D+*%
%TO.N,unconnected-(U1-D+-Pad67)*%
X119110000Y-63650000D03*
%TD*%
D14*
%TO.P,J1,1,Pin_1*%
%TO.N,Net-(J1-Pin_1)*%
X113500000Y-50500000D03*
D15*
%TO.P,J1,2,Pin_2*%
%TO.N,Net-(J1-Pin_2)*%
X113500000Y-53000000D03*
%TD*%
D16*
%TO.P,C2,1,3v3*%
%TO.N,Net-(C1-3v3)*%
X177000000Y-47000000D03*
D17*
%TO.P,C2,2,ENx*%
%TO.N,Net-(C2-ENx)*%
X174500000Y-47000000D03*
%TO.P,C2,3,DirAx*%
%TO.N,Net-(C2-DirAx)*%
X172000000Y-47000000D03*
%TO.P,C2,4,DirBx*%
%TO.N,Net-(C2-DirBx)*%
X169500000Y-47000000D03*
%TO.P,C2,5,EncAx*%
%TO.N,Net-(C2-EncAx)*%
X167000000Y-47000000D03*
%TO.P,C2,6,EncBx*%
%TO.N,Net-(C2-EncBx)*%
X164500000Y-47000000D03*
%TO.P,C2,7,GND*%
%TO.N,Net-(C1-GND)*%
X177000000Y-49500000D03*
%TO.P,C2,8,ENy*%
%TO.N,Net-(C2-ENy)*%
X174500000Y-49500000D03*
%TO.P,C2,9,DirAy*%
%TO.N,Net-(C2-DirAy)*%
X172000000Y-49500000D03*
%TO.P,C2,10,DirBy*%
%TO.N,Net-(C2-DirBy)*%
X169500000Y-49500000D03*
%TO.P,C2,11,EncAy*%
%TO.N,Net-(C2-EncAy)*%
X167000000Y-49500000D03*
%TO.P,C2,12,EncBy*%
%TO.N,Net-(C2-EncBy)*%
X164500000Y-49500000D03*
%TD*%
D16*
%TO.P,C1,1,3v3*%
%TO.N,Net-(C1-3v3)*%
X132000000Y-47000000D03*
D17*
%TO.P,C1,2,ENx*%
%TO.N,Net-(C1-ENx)*%
X129500000Y-47000000D03*
%TO.P,C1,3,DirAx*%
%TO.N,Net-(C1-DirAx)*%
X127000000Y-47000000D03*
%TO.P,C1,4,DirBx*%
%TO.N,Net-(C1-DirBx)*%
X124500000Y-47000000D03*
%TO.P,C1,5,EncAx*%
%TO.N,Net-(C1-EncAx)*%
X122000000Y-47000000D03*
%TO.P,C1,6,EncBx*%
%TO.N,Net-(C1-EncBx)*%
X119500000Y-47000000D03*
%TO.P,C1,7,GND*%
%TO.N,Net-(C1-GND)*%
X132000000Y-49500000D03*
%TO.P,C1,8,ENy*%
%TO.N,Net-(C1-ENy)*%
X129500000Y-49500000D03*
%TO.P,C1,9,DirAy*%
%TO.N,Net-(C1-DirAy)*%
X127000000Y-49500000D03*
%TO.P,C1,10,DirBy*%
%TO.N,Net-(C1-DirBy)*%
X124500000Y-49500000D03*
%TO.P,C1,11,EncAy*%
%TO.N,Net-(C1-EncAy)*%
X122000000Y-49500000D03*
%TO.P,C1,12,EncBy*%
%TO.N,Net-(C1-EncBy)*%
X119500000Y-49500000D03*
%TD*%
D18*
%TO.P,C3,1,3v3*%
%TO.N,Net-(C1-3v3)*%
X119000000Y-77000000D03*
D17*
%TO.P,C3,2,ENx*%
%TO.N,Net-(C3-ENx)*%
X121500000Y-77000000D03*
%TO.P,C3,3,DirAx*%
%TO.N,Net-(C3-DirAx)*%
X124000000Y-77000000D03*
%TO.P,C3,4,DirBx*%
%TO.N,Net-(C3-DirBx)*%
X126500000Y-77000000D03*
%TO.P,C3,5,EncAx*%
%TO.N,Net-(C3-EncAx)*%
X129000000Y-77000000D03*
%TO.P,C3,6,EncBx*%
%TO.N,Net-(C3-EncBx)*%
X131500000Y-77000000D03*
%TO.P,C3,7,GND*%
%TO.N,Net-(C1-GND)*%
X119000000Y-74500000D03*
%TO.P,C3,8,ENy*%
%TO.N,Net-(C3-ENy)*%
X121500000Y-74500000D03*
%TO.P,C3,9,DirAy*%
%TO.N,Net-(C3-DirAy)*%
X124000000Y-74500000D03*
%TO.P,C3,10,DirBy*%
%TO.N,Net-(C3-DirBy)*%
X126500000Y-74500000D03*
%TO.P,C3,11,EncAy*%
%TO.N,Net-(C3-EncAy)*%
X129000000Y-74500000D03*
%TO.P,C3,12,EncBy*%
%TO.N,Net-(C3-EncBy)*%
X131500000Y-74500000D03*
%TD*%
D18*
%TO.P,C4,1,3v3*%
%TO.N,Net-(C1-3v3)*%
X164500000Y-77000000D03*
D17*
%TO.P,C4,2,ENx*%
%TO.N,Net-(C4-ENx)*%
X167000000Y-77000000D03*
%TO.P,C4,3,DirAx*%
%TO.N,Net-(C4-DirAx)*%
X169500000Y-77000000D03*
%TO.P,C4,4,DirBx*%
%TO.N,Net-(C4-DirBx)*%
X172000000Y-77000000D03*
%TO.P,C4,5,EncAx*%
%TO.N,Net-(C4-EncAx)*%
X174500000Y-77000000D03*
%TO.P,C4,6,EncBx*%
%TO.N,Net-(C4-EncBx)*%
X177000000Y-77000000D03*
%TO.P,C4,7,GND*%
%TO.N,Net-(C1-GND)*%
X164500000Y-74500000D03*
%TO.P,C4,8,ENy*%
%TO.N,Net-(C4-ENy)*%
X167000000Y-74500000D03*
%TO.P,C4,9,DirAy*%
%TO.N,Net-(C4-DirAy)*%
X169500000Y-74500000D03*
%TO.P,C4,10,DirBy*%
%TO.N,Net-(C4-DirBy)*%
X172000000Y-74500000D03*
%TO.P,C4,11,EncAy*%
%TO.N,Net-(C4-EncAy)*%
X174500000Y-74500000D03*
%TO.P,C4,12,EncBy*%
%TO.N,Net-(C4-EncBy)*%
X177000000Y-74500000D03*
%TD*%
D19*
%TO.N,*%
X112000000Y-43000000D03*
X112000000Y-81000000D03*
X182000000Y-81000000D03*
X182000000Y-43000000D03*
D20*
%TO.N,Net-(C1-EncAx)*%
X135837438Y-49314035D03*
%TO.N,Net-(C1-GND)*%
X145000000Y-68500000D03*
%TO.N,Net-(C1-EncAy)*%
X148000000Y-49500000D03*
%TO.N,Net-(C1-EncBx)*%
X135237438Y-50262562D03*
%TO.N,Net-(C1-EncBy)*%
X149000000Y-49000000D03*
%TO.N,Net-(C4-EncBx)*%
X160960000Y-75000000D03*
%TO.N,Net-(C2-EncAx)*%
X163000000Y-45500000D03*
X150500000Y-48000000D03*
%TO.N,Net-(C3-EncBx)*%
X147529271Y-75334129D03*
%TO.N,Net-(C3-EncAx)*%
X148000000Y-76000000D03*
%TO.N,Net-(C4-EncAy)*%
X150560000Y-75000000D03*
%TO.N,Net-(C4-EncBy)*%
X150560000Y-76000000D03*
%TO.N,Net-(LS1-MISO)*%
X150000000Y-46800000D03*
X136000000Y-47000000D03*
X147500000Y-59000000D03*
%TO.N,Net-(LS1-SCK)*%
X151500000Y-61000000D03*
X160500000Y-78487868D03*
X137000000Y-46050000D03*
X149102608Y-77625000D03*
X149000000Y-46000000D03*
%TO.N,Net-(LS1-MOSI)*%
X149000000Y-47000000D03*
X142488235Y-54011765D03*
X135884897Y-48418047D03*
X160758533Y-77730791D03*
%TO.N,Net-(LS2-SS{slash})*%
X150000000Y-45000000D03*
%TO.N,Net-(LS3-SS{slash})*%
X147500000Y-78525000D03*
%TO.N,Net-(LS4-SS{slash})*%
X159500000Y-78900000D03*
%TO.N,Net-(C2-EncBx)*%
X161000000Y-47000000D03*
X150500000Y-49000000D03*
%TD*%
D21*
%TO.N,Net-(C1-GND)*%
X135500000Y-53000000D02*
X152180000Y-53000000D01*
X144350000Y-64350000D02*
X140650800Y-68049200D01*
X140650800Y-68049200D02*
X123855165Y-68049200D01*
X153940000Y-54760000D02*
X144350000Y-64350000D01*
X157700000Y-51000000D02*
X175500000Y-51000000D01*
X163000000Y-63820000D02*
X163000000Y-73000000D01*
X132000000Y-49500000D02*
X135500000Y-53000000D01*
X144350000Y-67850000D02*
X144350000Y-64350000D01*
X163000000Y-73000000D02*
X164500000Y-74500000D01*
X145000000Y-68500000D02*
X144350000Y-67850000D01*
X122360000Y-69544365D02*
X122360000Y-71140000D01*
X152180000Y-53000000D02*
X153940000Y-54760000D01*
X153940000Y-54760000D02*
X163000000Y-63820000D01*
X153940000Y-54760000D02*
X157700000Y-51000000D01*
X122360000Y-71140000D02*
X119000000Y-74500000D01*
X123855165Y-68049200D02*
X122360000Y-69544365D01*
X175500000Y-51000000D02*
X177000000Y-49500000D01*
%TO.N,Net-(C1-EncAy)*%
X120850000Y-50650000D02*
X122000000Y-49500000D01*
X118350000Y-50350000D02*
X118650000Y-50650000D01*
X118650000Y-50650000D02*
X120850000Y-50650000D01*
X148000000Y-49500000D02*
X143160000Y-44660000D01*
X118350000Y-46523654D02*
X118350000Y-50350000D01*
X120213654Y-44660000D02*
X118350000Y-46523654D01*
X143160000Y-44660000D02*
X120213654Y-44660000D01*
%TO.N,Net-(C1-EncBy)*%
X132476346Y-48350000D02*
X120650000Y-48350000D01*
X149000000Y-49000000D02*
X149000000Y-50000000D01*
X147500000Y-51500000D02*
X135626346Y-51500000D01*
X135626346Y-51500000D02*
X132476346Y-48350000D01*
X120650000Y-48350000D02*
X119500000Y-49500000D01*
X149000000Y-50000000D02*
X147500000Y-51500000D01*
%TO.N,Net-(C4-EncBx)*%
X161610000Y-75650000D02*
X175650000Y-75650000D01*
X160960000Y-75000000D02*
X161610000Y-75650000D01*
X175650000Y-75650000D02*
X177000000Y-77000000D01*
%TO.N,Net-(C2-EncAx)*%
X153000000Y-45500000D02*
X150500000Y-48000000D01*
X163000000Y-45500000D02*
X153000000Y-45500000D01*
%TO.N,Net-(C3-EncBx)*%
X143863400Y-79000000D02*
X133500000Y-79000000D01*
X133500000Y-79000000D02*
X131500000Y-77000000D01*
X147529271Y-75334129D02*
X143863400Y-79000000D01*
%TO.N,Net-(C3-EncAx)*%
X148000000Y-77000000D02*
X148000000Y-76000000D01*
X131500000Y-79500000D02*
X145500000Y-79500000D01*
X145500000Y-79500000D02*
X148000000Y-77000000D01*
X129000000Y-77000000D02*
X131500000Y-79500000D01*
%TO.N,Net-(LS1-MOSI)*%
X154400000Y-68900000D02*
X149960000Y-68900000D01*
X155380000Y-74314314D02*
X155380000Y-69880000D01*
X158796477Y-77730791D02*
X155380000Y-74314314D01*
X149960000Y-68900000D02*
X148860000Y-70000000D01*
X155380000Y-69880000D02*
X154400000Y-68900000D01*
X160758533Y-77730791D02*
X158796477Y-77730791D01*
%TO.N,Net-(LS3-SS{slash})*%
X148600000Y-77279079D02*
X148600000Y-75556329D01*
X147500000Y-78379079D02*
X148600000Y-77279079D01*
X148600000Y-75556329D02*
X144543671Y-71500000D01*
X135120000Y-71500000D02*
X133620000Y-70000000D01*
X144543671Y-71500000D02*
X135120000Y-71500000D01*
X147500000Y-78525000D02*
X147500000Y-78379079D01*
%TO.N,Net-(LS4-SS{slash})*%
X132180000Y-68900000D02*
X131080000Y-70000000D01*
X134075635Y-68900000D02*
X132180000Y-68900000D01*
X151600000Y-71100000D02*
X135364365Y-71100000D01*
X135364365Y-71100000D02*
X134720000Y-70455635D01*
X159500000Y-78900000D02*
X159400000Y-78900000D01*
X134720000Y-70455635D02*
X134720000Y-69544365D01*
X159400000Y-78900000D02*
X151600000Y-71100000D01*
X134720000Y-69544365D02*
X134075635Y-68900000D01*
%TO.N,Net-(C2-EncBx)*%
X152500000Y-47000000D02*
X150500000Y-49000000D01*
X161000000Y-47000000D02*
X152500000Y-47000000D01*
%TD*%
M02*
