%TF.GenerationSoftware,KiCad,Pcbnew,8.0.9-8.0.9-0~ubuntu22.04.1*%
%TF.CreationDate,2025-03-21T08:59:58-04:00*%
%TF.ProjectId,WS_Wheel_PCB,57535f57-6865-4656-9c5f-5043422e6b69,rev?*%
%TF.SameCoordinates,Original*%
%TF.FileFunction,Soldermask,Top*%
%TF.FilePolarity,Negative*%
%FSLAX46Y46*%
G04 Gerber Fmt 4.6, Leading zero omitted, Abs format (unit mm)*
G04 Created by KiCad (PCBNEW 8.0.9-8.0.9-0~ubuntu22.04.1) date 2025-03-21 08:59:58*
%MOMM*%
%LPD*%
G01*
G04 APERTURE LIST*
G04 Aperture macros list*
%AMRoundRect*
0 Rectangle with rounded corners*
0 $1 Rounding radius*
0 $2 $3 $4 $5 $6 $7 $8 $9 X,Y pos of 4 corners*
0 Add a 4 corners polygon primitive as box body*
4,1,4,$2,$3,$4,$5,$6,$7,$8,$9,$2,$3,0*
0 Add four circle primitives for the rounded corners*
1,1,$1+$1,$2,$3*
1,1,$1+$1,$4,$5*
1,1,$1+$1,$6,$7*
1,1,$1+$1,$8,$9*
0 Add four rect primitives between the rounded corners*
20,1,$1+$1,$2,$3,$4,$5,0*
20,1,$1+$1,$4,$5,$6,$7,0*
20,1,$1+$1,$6,$7,$8,$9,0*
20,1,$1+$1,$8,$9,$2,$3,0*%
%AMFreePoly0*
4,1,22,0.945671,0.830970,1.026777,0.776777,1.080970,0.695671,1.100000,0.600000,1.100000,-0.600000,1.080970,-0.695671,1.026777,-0.776777,0.945671,-0.830970,0.850000,-0.850000,-0.450000,-0.850000,-0.545671,-0.830970,-0.626777,-0.776777,-1.026777,-0.376777,-1.080970,-0.295671,-1.100000,-0.200000,-1.100000,0.600000,-1.080970,0.695671,-1.026777,0.776777,-0.945671,0.830970,-0.850000,0.850000,
0.850000,0.850000,0.945671,0.830970,0.945671,0.830970,$1*%
G04 Aperture macros list end*
%ADD10R,1.600000X1.600000*%
%ADD11C,1.600000*%
%ADD12R,1.300000X1.300000*%
%ADD13C,1.300000*%
%ADD14RoundRect,0.100000X0.675000X0.100000X-0.675000X0.100000X-0.675000X-0.100000X0.675000X-0.100000X0*%
%ADD15FreePoly0,0.000000*%
%ADD16O,2.200000X1.700000*%
%ADD17RoundRect,0.250000X-0.600000X0.600000X-0.600000X-0.600000X0.600000X-0.600000X0.600000X0.600000X0*%
%ADD18C,1.700000*%
%ADD19RoundRect,0.250000X0.600000X-0.600000X0.600000X0.600000X-0.600000X0.600000X-0.600000X-0.600000X0*%
%ADD20RoundRect,0.100000X-0.675000X-0.100000X0.675000X-0.100000X0.675000X0.100000X-0.675000X0.100000X0*%
G04 APERTURE END LIST*
D10*
%TO.C,U1*%
X118380000Y-70000000D03*
D11*
X120920000Y-70000000D03*
X123460000Y-70000000D03*
X126000000Y-70000000D03*
X128540000Y-70000000D03*
X131080000Y-70000000D03*
X133620000Y-70000000D03*
X136160000Y-70000000D03*
X138700000Y-70000000D03*
X141240000Y-70000000D03*
X143780000Y-70000000D03*
X146320000Y-70000000D03*
X148860000Y-70000000D03*
X151400000Y-70000000D03*
X153940000Y-70000000D03*
X156480000Y-70000000D03*
X159020000Y-70000000D03*
X161560000Y-70000000D03*
X164100000Y-70000000D03*
X166640000Y-70000000D03*
X169180000Y-70000000D03*
X171720000Y-70000000D03*
X174260000Y-70000000D03*
X176800000Y-70000000D03*
X176800000Y-54760000D03*
X174260000Y-54760000D03*
X171720000Y-54760000D03*
X169180000Y-54760000D03*
X166640000Y-54760000D03*
X164100000Y-54760000D03*
X161560000Y-54760000D03*
X159020000Y-54760000D03*
X156480000Y-54760000D03*
X153940000Y-54760000D03*
X151400000Y-54760000D03*
X148860000Y-54760000D03*
X146320000Y-54760000D03*
X143780000Y-54760000D03*
X141240000Y-54760000D03*
X138700000Y-54760000D03*
X136160000Y-54760000D03*
X133620000Y-54760000D03*
X131080000Y-54760000D03*
X128540000Y-54760000D03*
X126000000Y-54760000D03*
X123460000Y-54760000D03*
X120920000Y-54760000D03*
X118380000Y-54760000D03*
X120920000Y-57300000D03*
X164100000Y-67460000D03*
X164100000Y-64920000D03*
X164100000Y-62380000D03*
X164100000Y-59840000D03*
X164100000Y-57300000D03*
D10*
X124679200Y-66949200D03*
D11*
X127219200Y-66949200D03*
X129759200Y-66949200D03*
X132299200Y-66949200D03*
X134839200Y-66949200D03*
D12*
X131350000Y-57198400D03*
D13*
X131350000Y-59198400D03*
X131350000Y-61198400D03*
X133350000Y-61198400D03*
X133350000Y-59198400D03*
X133350000Y-57198400D03*
X119110000Y-61110000D03*
X119110000Y-63650000D03*
%TD*%
D14*
%TO.C,LS3*%
X144675000Y-78525000D03*
X144675000Y-77875000D03*
X144675000Y-77225000D03*
X144675000Y-76575000D03*
X144675000Y-75925000D03*
X144675000Y-75275000D03*
X144675000Y-74625000D03*
X144675000Y-73975000D03*
X138925000Y-73975000D03*
X138925000Y-74625000D03*
X138925000Y-75275000D03*
X138925000Y-75925000D03*
X138925000Y-76575000D03*
X138925000Y-77225000D03*
X138925000Y-77875000D03*
X138925000Y-78525000D03*
%TD*%
D13*
%TO.C,J1*%
X112160000Y-51750000D03*
D15*
X113500000Y-50500000D03*
D16*
X113500000Y-53000000D03*
%TD*%
D13*
%TO.C,C2*%
X170750000Y-45660000D03*
D17*
X177000000Y-47000000D03*
D18*
X174500000Y-47000000D03*
X172000000Y-47000000D03*
X169500000Y-47000000D03*
X167000000Y-47000000D03*
X164500000Y-47000000D03*
X177000000Y-49500000D03*
X174500000Y-49500000D03*
X172000000Y-49500000D03*
X169500000Y-49500000D03*
X167000000Y-49500000D03*
X164500000Y-49500000D03*
%TD*%
D13*
%TO.C,C1*%
X125750000Y-45660000D03*
D17*
X132000000Y-47000000D03*
D18*
X129500000Y-47000000D03*
X127000000Y-47000000D03*
X124500000Y-47000000D03*
X122000000Y-47000000D03*
X119500000Y-47000000D03*
X132000000Y-49500000D03*
X129500000Y-49500000D03*
X127000000Y-49500000D03*
X124500000Y-49500000D03*
X122000000Y-49500000D03*
X119500000Y-49500000D03*
%TD*%
D13*
%TO.C,C3*%
X125250000Y-78340000D03*
D19*
X119000000Y-77000000D03*
D18*
X121500000Y-77000000D03*
X124000000Y-77000000D03*
X126500000Y-77000000D03*
X129000000Y-77000000D03*
X131500000Y-77000000D03*
X119000000Y-74500000D03*
X121500000Y-74500000D03*
X124000000Y-74500000D03*
X126500000Y-74500000D03*
X129000000Y-74500000D03*
X131500000Y-74500000D03*
%TD*%
D13*
%TO.C,C4*%
X170750000Y-78340000D03*
D19*
X164500000Y-77000000D03*
D18*
X167000000Y-77000000D03*
X169500000Y-77000000D03*
X172000000Y-77000000D03*
X174500000Y-77000000D03*
X177000000Y-77000000D03*
X164500000Y-74500000D03*
X167000000Y-74500000D03*
X169500000Y-74500000D03*
X172000000Y-74500000D03*
X174500000Y-74500000D03*
X177000000Y-74500000D03*
%TD*%
D20*
%TO.C,LS1*%
X139325000Y-45450000D03*
X139325000Y-46100000D03*
X139325000Y-46750000D03*
X139325000Y-47400000D03*
X139325000Y-48050000D03*
X139325000Y-48700000D03*
X139325000Y-49350000D03*
X139325000Y-50000000D03*
X145075000Y-50000000D03*
X145075000Y-49350000D03*
X145075000Y-48700000D03*
X145075000Y-48050000D03*
X145075000Y-47400000D03*
X145075000Y-46750000D03*
X145075000Y-46100000D03*
X145075000Y-45450000D03*
%TD*%
%TO.C,LS2*%
X152325000Y-45450000D03*
X152325000Y-46100000D03*
X152325000Y-46750000D03*
X152325000Y-47400000D03*
X152325000Y-48050000D03*
X152325000Y-48700000D03*
X152325000Y-49350000D03*
X152325000Y-50000000D03*
X158075000Y-50000000D03*
X158075000Y-49350000D03*
X158075000Y-48700000D03*
X158075000Y-48050000D03*
X158075000Y-47400000D03*
X158075000Y-46750000D03*
X158075000Y-46100000D03*
X158075000Y-45450000D03*
%TD*%
D14*
%TO.C,LS4*%
X157675000Y-78525000D03*
X157675000Y-77875000D03*
X157675000Y-77225000D03*
X157675000Y-76575000D03*
X157675000Y-75925000D03*
X157675000Y-75275000D03*
X157675000Y-74625000D03*
X157675000Y-73975000D03*
X151925000Y-73975000D03*
X151925000Y-74625000D03*
X151925000Y-75275000D03*
X151925000Y-75925000D03*
X151925000Y-76575000D03*
X151925000Y-77225000D03*
X151925000Y-77875000D03*
X151925000Y-78525000D03*
%TD*%
M02*
