%TF.GenerationSoftware,KiCad,Pcbnew,8.0.9-8.0.9-0~ubuntu22.04.1*%
%TF.CreationDate,2025-03-21T08:59:58-04:00*%
%TF.ProjectId,WS_Wheel_PCB,57535f57-6865-4656-9c5f-5043422e6b69,rev?*%
%TF.SameCoordinates,Original*%
%TF.FileFunction,Copper,L3,Inr*%
%TF.FilePolarity,Positive*%
%FSLAX46Y46*%
G04 Gerber Fmt 4.6, Leading zero omitted, Abs format (unit mm)*
G04 Created by KiCad (PCBNEW 8.0.9-8.0.9-0~ubuntu22.04.1) date 2025-03-21 08:59:58*
%MOMM*%
%LPD*%
G01*
G04 APERTURE LIST*
G04 Aperture macros list*
%AMRoundRect*
0 Rectangle with rounded corners*
0 $1 Rounding radius*
0 $2 $3 $4 $5 $6 $7 $8 $9 X,Y pos of 4 corners*
0 Add a 4 corners polygon primitive as box body*
4,1,4,$2,$3,$4,$5,$6,$7,$8,$9,$2,$3,0*
0 Add four circle primitives for the rounded corners*
1,1,$1+$1,$2,$3*
1,1,$1+$1,$4,$5*
1,1,$1+$1,$6,$7*
1,1,$1+$1,$8,$9*
0 Add four rect primitives between the rounded corners*
20,1,$1+$1,$2,$3,$4,$5,0*
20,1,$1+$1,$4,$5,$6,$7,0*
20,1,$1+$1,$6,$7,$8,$9,0*
20,1,$1+$1,$8,$9,$2,$3,0*%
%AMFreePoly0*
4,1,22,0.945671,0.830970,1.026777,0.776777,1.080970,0.695671,1.100000,0.600000,1.100000,-0.600000,1.080970,-0.695671,1.026777,-0.776777,0.945671,-0.830970,0.850000,-0.850000,-0.450000,-0.850000,-0.545671,-0.830970,-0.626777,-0.776777,-1.026777,-0.376777,-1.080970,-0.295671,-1.100000,-0.200000,-1.100000,0.600000,-1.080970,0.695671,-1.026777,0.776777,-0.945671,0.830970,-0.850000,0.850000,
0.850000,0.850000,0.945671,0.830970,0.945671,0.830970,$1*%
G04 Aperture macros list end*
%TA.AperFunction,ComponentPad*%
%ADD10R,1.600000X1.600000*%
%TD*%
%TA.AperFunction,ComponentPad*%
%ADD11C,1.600000*%
%TD*%
%TA.AperFunction,ComponentPad*%
%ADD12R,1.300000X1.300000*%
%TD*%
%TA.AperFunction,ComponentPad*%
%ADD13C,1.300000*%
%TD*%
%TA.AperFunction,ComponentPad*%
%ADD14FreePoly0,0.000000*%
%TD*%
%TA.AperFunction,ComponentPad*%
%ADD15O,2.200000X1.700000*%
%TD*%
%TA.AperFunction,ComponentPad*%
%ADD16RoundRect,0.250000X-0.600000X0.600000X-0.600000X-0.600000X0.600000X-0.600000X0.600000X0.600000X0*%
%TD*%
%TA.AperFunction,ComponentPad*%
%ADD17C,1.700000*%
%TD*%
%TA.AperFunction,ComponentPad*%
%ADD18RoundRect,0.250000X0.600000X-0.600000X0.600000X0.600000X-0.600000X0.600000X-0.600000X-0.600000X0*%
%TD*%
%TA.AperFunction,ViaPad*%
%ADD19C,4.000000*%
%TD*%
%TA.AperFunction,ViaPad*%
%ADD20C,0.600000*%
%TD*%
%TA.AperFunction,Conductor*%
%ADD21C,0.200000*%
%TD*%
G04 APERTURE END LIST*
D10*
%TO.N,unconnected-(U1-GND-Pad1)*%
%TO.C,U1*%
X118380000Y-70000000D03*
D11*
%TO.N,unconnected-(U1-0_RX1_CRX2_CS1-Pad2)*%
X120920000Y-70000000D03*
%TO.N,unconnected-(U1-1_TX1_CTX2_MISO1-Pad3)*%
X123460000Y-70000000D03*
%TO.N,Net-(LS1-SS{slash})*%
X126000000Y-70000000D03*
%TO.N,Net-(LS2-SS{slash})*%
X128540000Y-70000000D03*
%TO.N,Net-(LS4-SS{slash})*%
X131080000Y-70000000D03*
%TO.N,Net-(LS3-SS{slash})*%
X133620000Y-70000000D03*
%TO.N,Net-(C1-ENy)*%
X136160000Y-70000000D03*
%TO.N,Net-(C1-DirAy)*%
X138700000Y-70000000D03*
%TO.N,Net-(C1-DirBy)*%
X141240000Y-70000000D03*
%TO.N,unconnected-(U1-9_OUT1C-Pad11)*%
X143780000Y-70000000D03*
%TO.N,unconnected-(U1-10_CS_MQSR-Pad12)*%
X146320000Y-70000000D03*
%TO.N,Net-(LS1-MOSI)*%
X148860000Y-70000000D03*
%TO.N,Net-(LS1-MISO)*%
X151400000Y-70000000D03*
%TO.N,Net-(C1-3v3)*%
X153940000Y-70000000D03*
%TO.N,Net-(C2-ENy)*%
X156480000Y-70000000D03*
%TO.N,Net-(C2-DirAy)*%
X159020000Y-70000000D03*
%TO.N,Net-(C2-DirBy)*%
X161560000Y-70000000D03*
%TO.N,Net-(C3-ENy)*%
X164100000Y-70000000D03*
%TO.N,Net-(C3-DirAy)*%
X166640000Y-70000000D03*
%TO.N,Net-(C3-DirBy)*%
X169180000Y-70000000D03*
%TO.N,Net-(C4-ENy)*%
X171720000Y-70000000D03*
%TO.N,Net-(C4-DirAy)*%
X174260000Y-70000000D03*
%TO.N,Net-(C4-DirBy)*%
X176800000Y-70000000D03*
%TO.N,unconnected-(U1-33_MCLK2-Pad25)*%
X176800000Y-54760000D03*
%TO.N,unconnected-(U1-34_RX8-Pad26)*%
X174260000Y-54760000D03*
%TO.N,unconnected-(U1-35_TX8-Pad27)*%
X171720000Y-54760000D03*
%TO.N,unconnected-(U1-36_CS-Pad28)*%
X169180000Y-54760000D03*
%TO.N,unconnected-(U1-37_CS-Pad29)*%
X166640000Y-54760000D03*
%TO.N,Net-(C3-DirBx)*%
X164100000Y-54760000D03*
%TO.N,Net-(C4-DirBx)*%
X161560000Y-54760000D03*
%TO.N,Net-(C4-DirAx)*%
X159020000Y-54760000D03*
%TO.N,Net-(C4-ENx)*%
X156480000Y-54760000D03*
%TO.N,Net-(C1-GND)*%
X153940000Y-54760000D03*
%TO.N,Net-(LS1-SCK)*%
X151400000Y-54760000D03*
%TO.N,unconnected-(U1-14_A0_TX3_SPDIF_OUT-Pad36)*%
X148860000Y-54760000D03*
%TO.N,unconnected-(U1-15_A1_RX3_SPDIF_IN-Pad37)*%
X146320000Y-54760000D03*
%TO.N,Net-(C3-DirAx)*%
X143780000Y-54760000D03*
%TO.N,Net-(C3-ENx)*%
X141240000Y-54760000D03*
%TO.N,Net-(C2-DirBx)*%
X138700000Y-54760000D03*
%TO.N,Net-(C2-DirAx)*%
X136160000Y-54760000D03*
%TO.N,Net-(C2-ENx)*%
X133620000Y-54760000D03*
%TO.N,Net-(C1-DirBx)*%
X131080000Y-54760000D03*
%TO.N,Net-(C1-DirAx)*%
X128540000Y-54760000D03*
%TO.N,Net-(C1-ENx)*%
X126000000Y-54760000D03*
%TO.N,unconnected-(U1-3V3-Pad46)*%
X123460000Y-54760000D03*
%TO.N,Net-(J1-Pin_1)*%
X120920000Y-54760000D03*
%TO.N,Net-(J1-Pin_2)*%
X118380000Y-54760000D03*
%TO.N,unconnected-(U1-VUSB-Pad49)*%
X120920000Y-57300000D03*
%TO.N,unconnected-(U1-VBAT-Pad50)*%
X164100000Y-67460000D03*
%TO.N,unconnected-(U1-3V3-Pad51)*%
X164100000Y-64920000D03*
%TO.N,unconnected-(U1-GND-Pad52)*%
X164100000Y-62380000D03*
%TO.N,unconnected-(U1-PROGRAM-Pad53)*%
X164100000Y-59840000D03*
%TO.N,unconnected-(U1-ON_OFF-Pad54)*%
X164100000Y-57300000D03*
D10*
%TO.N,unconnected-(U1-5V-Pad55)*%
X124679200Y-66949200D03*
D11*
%TO.N,unconnected-(U1-D--Pad56)*%
X127219200Y-66949200D03*
%TO.N,unconnected-(U1-D+-Pad57)*%
X129759200Y-66949200D03*
%TO.N,unconnected-(U1-GND-Pad58)*%
X132299200Y-66949200D03*
%TO.N,unconnected-(U1-GND-Pad59)*%
X134839200Y-66949200D03*
D12*
%TO.N,unconnected-(U1-R+-Pad60)*%
X131350000Y-57198400D03*
D13*
%TO.N,unconnected-(U1-LED-Pad61)*%
X131350000Y-59198400D03*
%TO.N,unconnected-(U1-T--Pad62)*%
X131350000Y-61198400D03*
%TO.N,unconnected-(U1-T+-Pad63)*%
X133350000Y-61198400D03*
%TO.N,unconnected-(U1-GND-Pad64)*%
X133350000Y-59198400D03*
%TO.N,unconnected-(U1-R--Pad65)*%
X133350000Y-57198400D03*
%TO.N,unconnected-(U1-D--Pad66)*%
X119110000Y-61110000D03*
%TO.N,unconnected-(U1-D+-Pad67)*%
X119110000Y-63650000D03*
%TD*%
D14*
%TO.N,Net-(J1-Pin_1)*%
%TO.C,J1*%
X113500000Y-50500000D03*
D15*
%TO.N,Net-(J1-Pin_2)*%
X113500000Y-53000000D03*
%TD*%
D16*
%TO.N,Net-(C1-3v3)*%
%TO.C,C2*%
X177000000Y-47000000D03*
D17*
%TO.N,Net-(C2-ENx)*%
X174500000Y-47000000D03*
%TO.N,Net-(C2-DirAx)*%
X172000000Y-47000000D03*
%TO.N,Net-(C2-DirBx)*%
X169500000Y-47000000D03*
%TO.N,Net-(C2-EncAx)*%
X167000000Y-47000000D03*
%TO.N,Net-(C2-EncBx)*%
X164500000Y-47000000D03*
%TO.N,Net-(C1-GND)*%
X177000000Y-49500000D03*
%TO.N,Net-(C2-ENy)*%
X174500000Y-49500000D03*
%TO.N,Net-(C2-DirAy)*%
X172000000Y-49500000D03*
%TO.N,Net-(C2-DirBy)*%
X169500000Y-49500000D03*
%TO.N,Net-(C2-EncAy)*%
X167000000Y-49500000D03*
%TO.N,Net-(C2-EncBy)*%
X164500000Y-49500000D03*
%TD*%
D16*
%TO.N,Net-(C1-3v3)*%
%TO.C,C1*%
X132000000Y-47000000D03*
D17*
%TO.N,Net-(C1-ENx)*%
X129500000Y-47000000D03*
%TO.N,Net-(C1-DirAx)*%
X127000000Y-47000000D03*
%TO.N,Net-(C1-DirBx)*%
X124500000Y-47000000D03*
%TO.N,Net-(C1-EncAx)*%
X122000000Y-47000000D03*
%TO.N,Net-(C1-EncBx)*%
X119500000Y-47000000D03*
%TO.N,Net-(C1-GND)*%
X132000000Y-49500000D03*
%TO.N,Net-(C1-ENy)*%
X129500000Y-49500000D03*
%TO.N,Net-(C1-DirAy)*%
X127000000Y-49500000D03*
%TO.N,Net-(C1-DirBy)*%
X124500000Y-49500000D03*
%TO.N,Net-(C1-EncAy)*%
X122000000Y-49500000D03*
%TO.N,Net-(C1-EncBy)*%
X119500000Y-49500000D03*
%TD*%
D18*
%TO.N,Net-(C1-3v3)*%
%TO.C,C3*%
X119000000Y-77000000D03*
D17*
%TO.N,Net-(C3-ENx)*%
X121500000Y-77000000D03*
%TO.N,Net-(C3-DirAx)*%
X124000000Y-77000000D03*
%TO.N,Net-(C3-DirBx)*%
X126500000Y-77000000D03*
%TO.N,Net-(C3-EncAx)*%
X129000000Y-77000000D03*
%TO.N,Net-(C3-EncBx)*%
X131500000Y-77000000D03*
%TO.N,Net-(C1-GND)*%
X119000000Y-74500000D03*
%TO.N,Net-(C3-ENy)*%
X121500000Y-74500000D03*
%TO.N,Net-(C3-DirAy)*%
X124000000Y-74500000D03*
%TO.N,Net-(C3-DirBy)*%
X126500000Y-74500000D03*
%TO.N,Net-(C3-EncAy)*%
X129000000Y-74500000D03*
%TO.N,Net-(C3-EncBy)*%
X131500000Y-74500000D03*
%TD*%
D18*
%TO.N,Net-(C1-3v3)*%
%TO.C,C4*%
X164500000Y-77000000D03*
D17*
%TO.N,Net-(C4-ENx)*%
X167000000Y-77000000D03*
%TO.N,Net-(C4-DirAx)*%
X169500000Y-77000000D03*
%TO.N,Net-(C4-DirBx)*%
X172000000Y-77000000D03*
%TO.N,Net-(C4-EncAx)*%
X174500000Y-77000000D03*
%TO.N,Net-(C4-EncBx)*%
X177000000Y-77000000D03*
%TO.N,Net-(C1-GND)*%
X164500000Y-74500000D03*
%TO.N,Net-(C4-ENy)*%
X167000000Y-74500000D03*
%TO.N,Net-(C4-DirAy)*%
X169500000Y-74500000D03*
%TO.N,Net-(C4-DirBy)*%
X172000000Y-74500000D03*
%TO.N,Net-(C4-EncAy)*%
X174500000Y-74500000D03*
%TO.N,Net-(C4-EncBy)*%
X177000000Y-74500000D03*
%TD*%
D19*
%TO.N,*%
X112000000Y-43000000D03*
X112000000Y-81000000D03*
X182000000Y-81000000D03*
X182000000Y-43000000D03*
D20*
%TO.N,Net-(C1-EncAx)*%
X135837438Y-49314035D03*
%TO.N,Net-(C1-GND)*%
X145000000Y-68500000D03*
%TO.N,Net-(C1-EncAy)*%
X148000000Y-49500000D03*
%TO.N,Net-(C1-EncBx)*%
X135237438Y-50262562D03*
%TO.N,Net-(C1-EncBy)*%
X149000000Y-49000000D03*
%TO.N,Net-(C4-EncBx)*%
X160960000Y-75000000D03*
%TO.N,Net-(C2-EncAx)*%
X163000000Y-45500000D03*
X150500000Y-48000000D03*
%TO.N,Net-(C3-EncBx)*%
X147529271Y-75334129D03*
%TO.N,Net-(C3-EncAx)*%
X148000000Y-76000000D03*
%TO.N,Net-(C4-EncAy)*%
X150560000Y-75000000D03*
%TO.N,Net-(C4-EncBy)*%
X150560000Y-76000000D03*
%TO.N,Net-(LS1-MISO)*%
X150000000Y-46800000D03*
X136000000Y-47000000D03*
X147500000Y-59000000D03*
%TO.N,Net-(LS1-SCK)*%
X151500000Y-61000000D03*
X160500000Y-78487868D03*
X137000000Y-46050000D03*
X149102608Y-77625000D03*
X149000000Y-46000000D03*
%TO.N,Net-(LS1-MOSI)*%
X149000000Y-47000000D03*
X142488235Y-54011765D03*
X135884897Y-48418047D03*
X160758533Y-77730791D03*
%TO.N,Net-(LS2-SS{slash})*%
X150000000Y-45000000D03*
%TO.N,Net-(LS3-SS{slash})*%
X147500000Y-78525000D03*
%TO.N,Net-(LS4-SS{slash})*%
X159500000Y-78900000D03*
%TO.N,Net-(C2-EncBx)*%
X161000000Y-47000000D03*
X150500000Y-49000000D03*
%TD*%
D21*
%TO.N,Net-(C1-ENx)*%
X128150000Y-52610000D02*
X128150000Y-48350000D01*
X128150000Y-48350000D02*
X129500000Y-47000000D01*
X126000000Y-54760000D02*
X128150000Y-52610000D01*
%TO.N,Net-(C1-DirBx)*%
X131080000Y-54760000D02*
X133200000Y-52640000D01*
X131665456Y-44610000D02*
X125315076Y-44610000D01*
X133200000Y-46144544D02*
X131665456Y-44610000D01*
X133200000Y-52640000D02*
X133200000Y-46144544D01*
X125315076Y-44610000D02*
X124500000Y-45425076D01*
X124500000Y-45425076D02*
X124500000Y-47000000D01*
%TO.N,Net-(LS1-MISO)*%
X149600000Y-53944365D02*
X150000000Y-54344365D01*
X149097058Y-47751471D02*
X150000000Y-46848529D01*
X150000000Y-56500000D02*
X147500000Y-59000000D01*
X150000000Y-46848529D02*
X150000000Y-46800000D01*
X150000000Y-54344365D02*
X150000000Y-56500000D01*
X149600000Y-48254413D02*
X149600000Y-53944365D01*
X136751471Y-47751471D02*
X149097058Y-47751471D01*
X149097058Y-47751471D02*
X149600000Y-48254413D01*
X136000000Y-47000000D02*
X136751471Y-47751471D01*
%TO.N,Net-(LS1-SCK)*%
X149960000Y-62540000D02*
X151500000Y-61000000D01*
X149102608Y-77625000D02*
X149960000Y-76767608D01*
X149000000Y-46000000D02*
X150048529Y-46000000D01*
X149960000Y-76767608D02*
X149960000Y-62540000D01*
X150048529Y-46000000D02*
X151400000Y-47351471D01*
X151400000Y-47351471D02*
X151400000Y-54760000D01*
%TO.N,Net-(C1-DirAx)*%
X128540000Y-54760000D02*
X130650000Y-52650000D01*
X130000000Y-45500000D02*
X128500000Y-45500000D01*
X130650000Y-52650000D02*
X130650000Y-46150000D01*
X130650000Y-46150000D02*
X130000000Y-45500000D01*
X128500000Y-45500000D02*
X127000000Y-47000000D01*
%TO.N,Net-(C2-DirBy)*%
X179700000Y-67068628D02*
X179700000Y-78431372D01*
X172820000Y-60188628D02*
X179700000Y-67068628D01*
X165640000Y-80140000D02*
X161560000Y-76060000D01*
X179700000Y-78431372D02*
X177991372Y-80140000D01*
X177991372Y-80140000D02*
X165640000Y-80140000D01*
X172820000Y-52820000D02*
X172820000Y-60188628D01*
X161560000Y-76060000D02*
X161560000Y-70000000D01*
X169500000Y-49500000D02*
X172820000Y-52820000D01*
%TO.N,Net-(C2-DirAy)*%
X175360000Y-52860000D02*
X175360000Y-62162942D01*
X178157058Y-80540000D02*
X165474314Y-80540000D01*
X180500000Y-78197058D02*
X178157058Y-80540000D01*
X172000000Y-49500000D02*
X175360000Y-52860000D01*
X180500000Y-67302942D02*
X180500000Y-78197058D01*
X159020000Y-74085686D02*
X159020000Y-70000000D01*
X165474314Y-80540000D02*
X159020000Y-74085686D01*
X175360000Y-62162942D02*
X180500000Y-67302942D01*
%TO.N,Net-(C2-ENy)*%
X180900000Y-78362744D02*
X178322744Y-80940000D01*
X156480000Y-72111372D02*
X156480000Y-70000000D01*
X165308628Y-80940000D02*
X156480000Y-72111372D01*
X180900000Y-55900000D02*
X180900000Y-78362744D01*
X174500000Y-49500000D02*
X180900000Y-55900000D01*
X178322744Y-80940000D02*
X165308628Y-80940000D01*
%TO.N,Net-(C3-ENx)*%
X124900000Y-69544365D02*
X125544365Y-68900000D01*
X127100000Y-68900000D02*
X128659200Y-67340800D01*
X129303565Y-65849200D02*
X130150800Y-65849200D01*
X121023654Y-73350000D02*
X122005635Y-73350000D01*
X124900000Y-70455635D02*
X124900000Y-69544365D01*
X128659200Y-66493565D02*
X129303565Y-65849200D01*
X121500000Y-77000000D02*
X120350000Y-75850000D01*
X125544365Y-68900000D02*
X127100000Y-68900000D01*
X128659200Y-67340800D02*
X128659200Y-66493565D01*
X120350000Y-74023654D02*
X121023654Y-73350000D01*
X122005635Y-73350000D02*
X124900000Y-70455635D01*
X120350000Y-75850000D02*
X120350000Y-74023654D01*
X130150800Y-65849200D02*
X141240000Y-54760000D01*
%TO.N,Net-(C3-DirAx)*%
X142932765Y-54760000D02*
X143780000Y-54760000D01*
X128516486Y-68049200D02*
X130214835Y-68049200D01*
X124000000Y-77000000D02*
X122650000Y-75650000D01*
X127440000Y-69125686D02*
X128516486Y-68049200D01*
X125544365Y-71100000D02*
X126455635Y-71100000D01*
X130214835Y-68049200D02*
X131199200Y-67064835D01*
X131199200Y-67064835D02*
X131199200Y-66493565D01*
X126455635Y-71100000D02*
X127440000Y-70115635D01*
X122650000Y-75650000D02*
X122650000Y-73994365D01*
X122650000Y-73994365D02*
X125544365Y-71100000D01*
X127440000Y-70115635D02*
X127440000Y-69125686D01*
X131199200Y-66493565D02*
X142932765Y-54760000D01*
%TO.N,Net-(C4-ENx)*%
X179300000Y-78265686D02*
X177825686Y-79740000D01*
X170280000Y-54304365D02*
X170280000Y-58214314D01*
X158380000Y-52860000D02*
X168835635Y-52860000D01*
X168835635Y-52860000D02*
X170280000Y-54304365D01*
X169740000Y-79740000D02*
X167000000Y-77000000D01*
X179300000Y-67234314D02*
X179300000Y-78265686D01*
X156480000Y-54760000D02*
X158380000Y-52860000D01*
X170280000Y-58214314D02*
X179300000Y-67234314D01*
X177825686Y-79740000D02*
X169740000Y-79740000D01*
%TO.N,Net-(C4-DirBx)*%
X165200000Y-55215635D02*
X178500000Y-68515635D01*
X178500000Y-68515635D02*
X178500000Y-77126346D01*
X178500000Y-77126346D02*
X177126346Y-78500000D01*
X161560000Y-54760000D02*
X162660000Y-53660000D01*
X164555635Y-53660000D02*
X165200000Y-54304365D01*
X162660000Y-53660000D02*
X164555635Y-53660000D01*
X165200000Y-54304365D02*
X165200000Y-55215635D01*
X173500000Y-78500000D02*
X172000000Y-77000000D01*
X177126346Y-78500000D02*
X173500000Y-78500000D01*
%TO.N,Net-(C4-DirAx)*%
X169500000Y-78504214D02*
X169500000Y-77000000D01*
X178900000Y-67400000D02*
X178900000Y-78100000D01*
X166760000Y-53260000D02*
X168000000Y-54500000D01*
X168000000Y-54500000D02*
X168000000Y-56500000D01*
X178900000Y-78100000D02*
X177660000Y-79340000D01*
X159020000Y-54760000D02*
X160520000Y-53260000D01*
X160520000Y-53260000D02*
X166760000Y-53260000D01*
X177660000Y-79340000D02*
X170335786Y-79340000D01*
X168000000Y-56500000D02*
X178900000Y-67400000D01*
X170335786Y-79340000D02*
X169500000Y-78504214D01*
%TO.N,Net-(C3-DirBx)*%
X139500000Y-60000000D02*
X147500000Y-60000000D01*
X129640000Y-70455635D02*
X129640000Y-69860001D01*
X125350000Y-75850000D02*
X125350000Y-74023654D01*
X132754835Y-68049200D02*
X133500000Y-67304035D01*
X128595635Y-71500000D02*
X129640000Y-70455635D01*
X133500000Y-66000000D02*
X139500000Y-60000000D01*
X131450801Y-68049200D02*
X132754835Y-68049200D01*
X147500000Y-60000000D02*
X148000000Y-59500000D01*
X129640000Y-69860001D02*
X131450801Y-68049200D01*
X148000000Y-59500000D02*
X159360000Y-59500000D01*
X126500000Y-77000000D02*
X125350000Y-75850000D01*
X133500000Y-67304035D02*
X133500000Y-66000000D01*
X125350000Y-74023654D02*
X127873654Y-71500000D01*
X127873654Y-71500000D02*
X128595635Y-71500000D01*
X159360000Y-59500000D02*
X164100000Y-54760000D01*
%TD*%
M02*
