M48
; DRILL file {KiCad 8.0.9-8.0.9-0~ubuntu22.04.1} date 2025-03-21T08:59:49-0400
; FORMAT={-:-/ absolute / inch / decimal}
; #@! TF.CreationDate,2025-03-21T08:59:49-04:00
; #@! TF.GenerationSoftware,Kicad,Pcbnew,8.0.9-8.0.9-0~ubuntu22.04.1
; #@! TF.FileFunction,Plated,1,4,PTH
FMAT,2
INCH
; #@! TA.AperFunction,Plated,PTH,ViaDrill
T1C0.0118
; #@! TA.AperFunction,Plated,PTH,ComponentDrill
T2C0.0315
; #@! TA.AperFunction,Plated,PTH,ComponentDrill
T3C0.0433
; #@! TA.AperFunction,Plated,PTH,ComponentDrill
T4C0.0472
; #@! TA.AperFunction,Plated,PTH,ViaDrill
T5C0.1181
%
G90
G05
T1
X5.3243Y-1.9788
X5.3479Y-1.9415
X5.3498Y-1.9062
X5.3543Y-1.8504
X5.3937Y-1.813
X5.6098Y-2.1264
X5.7087Y-2.6969
X5.8071Y-2.3228
X5.8071Y-3.0915
X5.8082Y-2.9659
X5.8268Y-1.9488
X5.8268Y-2.9921
X5.8661Y-1.811
X5.8661Y-1.8504
X5.8661Y-1.9291
X5.8702Y-3.0561
X5.9055Y-1.7717
X5.9055Y-1.8425
X5.9252Y-1.8898
X5.9252Y-1.9291
X5.9276Y-2.9528
X5.9276Y-2.9921
X5.9646Y-2.4016
X6.2795Y-3.1063
X6.3189Y-3.0901
X6.3291Y-3.0603
X6.337Y-2.9528
X6.3386Y-1.8504
X6.4173Y-1.7913
T2
X4.6894Y-2.4059
X4.6894Y-2.5059
X5.1713Y-2.2519
X5.1713Y-2.3306
X5.1713Y-2.4094
X5.25Y-2.2519
X5.25Y-2.3306
X5.25Y-2.4094
T3
X4.6606Y-2.1559
X4.6606Y-2.7559
X4.7606Y-2.1559
X4.7606Y-2.2559
X4.7606Y-2.7559
X4.8606Y-2.1559
X4.8606Y-2.7559
X4.9086Y-2.6358
X4.9606Y-2.1559
X4.9606Y-2.7559
X5.0086Y-2.6358
X5.0606Y-2.1559
X5.0606Y-2.7559
X5.1086Y-2.6358
X5.1606Y-2.1559
X5.1606Y-2.7559
X5.2086Y-2.6358
X5.2606Y-2.1559
X5.2606Y-2.7559
X5.3086Y-2.6358
X5.3606Y-2.1559
X5.3606Y-2.7559
X5.4606Y-2.1559
X5.4606Y-2.7559
X5.5606Y-2.1559
X5.5606Y-2.7559
X5.6606Y-2.1559
X5.6606Y-2.7559
X5.7606Y-2.1559
X5.7606Y-2.7559
X5.8606Y-2.1559
X5.8606Y-2.7559
X5.9606Y-2.1559
X5.9606Y-2.7559
X6.0606Y-2.1559
X6.0606Y-2.7559
X6.1606Y-2.1559
X6.1606Y-2.7559
X6.2606Y-2.1559
X6.2606Y-2.7559
X6.3606Y-2.1559
X6.3606Y-2.7559
X6.4606Y-2.1559
X6.4606Y-2.2559
X6.4606Y-2.3559
X6.4606Y-2.4559
X6.4606Y-2.5559
X6.4606Y-2.6559
X6.4606Y-2.7559
X6.5606Y-2.1559
X6.5606Y-2.7559
X6.6606Y-2.1559
X6.6606Y-2.7559
X6.7606Y-2.1559
X6.7606Y-2.7559
X6.8606Y-2.1559
X6.8606Y-2.7559
X6.9606Y-2.1559
X6.9606Y-2.7559
T4
X4.4685Y-1.9882
X4.4685Y-2.0866
X4.685Y-2.9331
X4.685Y-3.0315
X4.7047Y-1.8504
X4.7047Y-1.9488
X4.7835Y-2.9331
X4.7835Y-3.0315
X4.8031Y-1.8504
X4.8031Y-1.9488
X4.8819Y-2.9331
X4.8819Y-3.0315
X4.9016Y-1.8504
X4.9016Y-1.9488
X4.9803Y-2.9331
X4.9803Y-3.0315
X5.0Y-1.8504
X5.0Y-1.9488
X5.0787Y-2.9331
X5.0787Y-3.0315
X5.0984Y-1.8504
X5.0984Y-1.9488
X5.1772Y-2.9331
X5.1772Y-3.0315
X5.1969Y-1.8504
X5.1969Y-1.9488
X6.4764Y-1.8504
X6.4764Y-1.9488
X6.4764Y-2.9331
X6.4764Y-3.0315
X6.5748Y-1.8504
X6.5748Y-1.9488
X6.5748Y-2.9331
X6.5748Y-3.0315
X6.6732Y-1.8504
X6.6732Y-1.9488
X6.6732Y-2.9331
X6.6732Y-3.0315
X6.7717Y-1.8504
X6.7717Y-1.9488
X6.7717Y-2.9331
X6.7717Y-3.0315
X6.8701Y-1.8504
X6.8701Y-1.9488
X6.8701Y-2.9331
X6.8701Y-3.0315
X6.9685Y-1.8504
X6.9685Y-1.9488
X6.9685Y-2.9331
X6.9685Y-3.0315
T5
X4.4094Y-1.6929
X4.4094Y-3.189
X7.1654Y-1.6929
X7.1654Y-3.189
M30
