%TF.GenerationSoftware,KiCad,Pcbnew,8.0.9-8.0.9-0~ubuntu22.04.1*%
%TF.CreationDate,2025-03-21T08:59:58-04:00*%
%TF.ProjectId,WS_Wheel_PCB,57535f57-6865-4656-9c5f-5043422e6b69,rev?*%
%TF.SameCoordinates,Original*%
%TF.FileFunction,Copper,L1,Top*%
%TF.FilePolarity,Positive*%
%FSLAX46Y46*%
G04 Gerber Fmt 4.6, Leading zero omitted, Abs format (unit mm)*
G04 Created by KiCad (PCBNEW 8.0.9-8.0.9-0~ubuntu22.04.1) date 2025-03-21 08:59:58*
%MOMM*%
%LPD*%
G01*
G04 APERTURE LIST*
G04 Aperture macros list*
%AMRoundRect*
0 Rectangle with rounded corners*
0 $1 Rounding radius*
0 $2 $3 $4 $5 $6 $7 $8 $9 X,Y pos of 4 corners*
0 Add a 4 corners polygon primitive as box body*
4,1,4,$2,$3,$4,$5,$6,$7,$8,$9,$2,$3,0*
0 Add four circle primitives for the rounded corners*
1,1,$1+$1,$2,$3*
1,1,$1+$1,$4,$5*
1,1,$1+$1,$6,$7*
1,1,$1+$1,$8,$9*
0 Add four rect primitives between the rounded corners*
20,1,$1+$1,$2,$3,$4,$5,0*
20,1,$1+$1,$4,$5,$6,$7,0*
20,1,$1+$1,$6,$7,$8,$9,0*
20,1,$1+$1,$8,$9,$2,$3,0*%
%AMFreePoly0*
4,1,22,0.945671,0.830970,1.026777,0.776777,1.080970,0.695671,1.100000,0.600000,1.100000,-0.600000,1.080970,-0.695671,1.026777,-0.776777,0.945671,-0.830970,0.850000,-0.850000,-0.450000,-0.850000,-0.545671,-0.830970,-0.626777,-0.776777,-1.026777,-0.376777,-1.080970,-0.295671,-1.100000,-0.200000,-1.100000,0.600000,-1.080970,0.695671,-1.026777,0.776777,-0.945671,0.830970,-0.850000,0.850000,
0.850000,0.850000,0.945671,0.830970,0.945671,0.830970,$1*%
G04 Aperture macros list end*
%TA.AperFunction,ComponentPad*%
%ADD10R,1.600000X1.600000*%
%TD*%
%TA.AperFunction,ComponentPad*%
%ADD11C,1.600000*%
%TD*%
%TA.AperFunction,ComponentPad*%
%ADD12R,1.300000X1.300000*%
%TD*%
%TA.AperFunction,ComponentPad*%
%ADD13C,1.300000*%
%TD*%
%TA.AperFunction,SMDPad,CuDef*%
%ADD14RoundRect,0.100000X0.675000X0.100000X-0.675000X0.100000X-0.675000X-0.100000X0.675000X-0.100000X0*%
%TD*%
%TA.AperFunction,ComponentPad*%
%ADD15FreePoly0,0.000000*%
%TD*%
%TA.AperFunction,ComponentPad*%
%ADD16O,2.200000X1.700000*%
%TD*%
%TA.AperFunction,ComponentPad*%
%ADD17RoundRect,0.250000X-0.600000X0.600000X-0.600000X-0.600000X0.600000X-0.600000X0.600000X0.600000X0*%
%TD*%
%TA.AperFunction,ComponentPad*%
%ADD18C,1.700000*%
%TD*%
%TA.AperFunction,ComponentPad*%
%ADD19RoundRect,0.250000X0.600000X-0.600000X0.600000X0.600000X-0.600000X0.600000X-0.600000X-0.600000X0*%
%TD*%
%TA.AperFunction,SMDPad,CuDef*%
%ADD20RoundRect,0.100000X-0.675000X-0.100000X0.675000X-0.100000X0.675000X0.100000X-0.675000X0.100000X0*%
%TD*%
%TA.AperFunction,ViaPad*%
%ADD21C,4.000000*%
%TD*%
%TA.AperFunction,ViaPad*%
%ADD22C,0.600000*%
%TD*%
%TA.AperFunction,Conductor*%
%ADD23C,0.200000*%
%TD*%
%TA.AperFunction,Conductor*%
%ADD24C,0.300000*%
%TD*%
%TA.AperFunction,Conductor*%
%ADD25C,0.500000*%
%TD*%
G04 APERTURE END LIST*
D10*
%TO.P,U1,1,GND*%
%TO.N,unconnected-(U1-GND-Pad1)*%
X118380000Y-70000000D03*
D11*
%TO.P,U1,2,0_RX1_CRX2_CS1*%
%TO.N,unconnected-(U1-0_RX1_CRX2_CS1-Pad2)*%
X120920000Y-70000000D03*
%TO.P,U1,3,1_TX1_CTX2_MISO1*%
%TO.N,unconnected-(U1-1_TX1_CTX2_MISO1-Pad3)*%
X123460000Y-70000000D03*
%TO.P,U1,4,2_OUT2*%
%TO.N,Net-(LS1-SS{slash})*%
X126000000Y-70000000D03*
%TO.P,U1,5,3_LRCLK2*%
%TO.N,Net-(LS2-SS{slash})*%
X128540000Y-70000000D03*
%TO.P,U1,6,4_BCLK2*%
%TO.N,Net-(LS4-SS{slash})*%
X131080000Y-70000000D03*
%TO.P,U1,7,5_IN2*%
%TO.N,Net-(LS3-SS{slash})*%
X133620000Y-70000000D03*
%TO.P,U1,8,6_OUT1D*%
%TO.N,Net-(C1-ENy)*%
X136160000Y-70000000D03*
%TO.P,U1,9,7_RX2_OUT1A*%
%TO.N,Net-(C1-DirAy)*%
X138700000Y-70000000D03*
%TO.P,U1,10,8_TX2_IN1*%
%TO.N,Net-(C1-DirBy)*%
X141240000Y-70000000D03*
%TO.P,U1,11,9_OUT1C*%
%TO.N,unconnected-(U1-9_OUT1C-Pad11)*%
X143780000Y-70000000D03*
%TO.P,U1,12,10_CS_MQSR*%
%TO.N,unconnected-(U1-10_CS_MQSR-Pad12)*%
X146320000Y-70000000D03*
%TO.P,U1,13,11_MOSI_CTX1*%
%TO.N,Net-(LS1-MOSI)*%
X148860000Y-70000000D03*
%TO.P,U1,14,12_MISO_MQSL*%
%TO.N,Net-(LS1-MISO)*%
X151400000Y-70000000D03*
%TO.P,U1,15,3V3*%
%TO.N,Net-(C1-3v3)*%
X153940000Y-70000000D03*
%TO.P,U1,16,24_A10_TX6_SCL2*%
%TO.N,Net-(C2-ENy)*%
X156480000Y-70000000D03*
%TO.P,U1,17,25_A11_RX6_SDA2*%
%TO.N,Net-(C2-DirAy)*%
X159020000Y-70000000D03*
%TO.P,U1,18,26_A12_MOSI1*%
%TO.N,Net-(C2-DirBy)*%
X161560000Y-70000000D03*
%TO.P,U1,19,27_A13_SCK1*%
%TO.N,Net-(C3-ENy)*%
X164100000Y-70000000D03*
%TO.P,U1,20,28_RX7*%
%TO.N,Net-(C3-DirAy)*%
X166640000Y-70000000D03*
%TO.P,U1,21,29_TX7*%
%TO.N,Net-(C3-DirBy)*%
X169180000Y-70000000D03*
%TO.P,U1,22,30_CRX3*%
%TO.N,Net-(C4-ENy)*%
X171720000Y-70000000D03*
%TO.P,U1,23,31_CTX3*%
%TO.N,Net-(C4-DirAy)*%
X174260000Y-70000000D03*
%TO.P,U1,24,32_OUT1B*%
%TO.N,Net-(C4-DirBy)*%
X176800000Y-70000000D03*
%TO.P,U1,25,33_MCLK2*%
%TO.N,unconnected-(U1-33_MCLK2-Pad25)*%
X176800000Y-54760000D03*
%TO.P,U1,26,34_RX8*%
%TO.N,unconnected-(U1-34_RX8-Pad26)*%
X174260000Y-54760000D03*
%TO.P,U1,27,35_TX8*%
%TO.N,unconnected-(U1-35_TX8-Pad27)*%
X171720000Y-54760000D03*
%TO.P,U1,28,36_CS*%
%TO.N,unconnected-(U1-36_CS-Pad28)*%
X169180000Y-54760000D03*
%TO.P,U1,29,37_CS*%
%TO.N,unconnected-(U1-37_CS-Pad29)*%
X166640000Y-54760000D03*
%TO.P,U1,30,38_CS1_IN1*%
%TO.N,Net-(C3-DirBx)*%
X164100000Y-54760000D03*
%TO.P,U1,31,39_MISO1_OUT1A*%
%TO.N,Net-(C4-DirBx)*%
X161560000Y-54760000D03*
%TO.P,U1,32,40_A16*%
%TO.N,Net-(C4-DirAx)*%
X159020000Y-54760000D03*
%TO.P,U1,33,41_A17*%
%TO.N,Net-(C4-ENx)*%
X156480000Y-54760000D03*
%TO.P,U1,34,GND*%
%TO.N,Net-(C1-GND)*%
X153940000Y-54760000D03*
%TO.P,U1,35,13_SCK_LED*%
%TO.N,Net-(LS1-SCK)*%
X151400000Y-54760000D03*
%TO.P,U1,36,14_A0_TX3_SPDIF_OUT*%
%TO.N,unconnected-(U1-14_A0_TX3_SPDIF_OUT-Pad36)*%
X148860000Y-54760000D03*
%TO.P,U1,37,15_A1_RX3_SPDIF_IN*%
%TO.N,unconnected-(U1-15_A1_RX3_SPDIF_IN-Pad37)*%
X146320000Y-54760000D03*
%TO.P,U1,38,16_A2_RX4_SCL1*%
%TO.N,Net-(C3-DirAx)*%
X143780000Y-54760000D03*
%TO.P,U1,39,17_A3_TX4_SDA1*%
%TO.N,Net-(C3-ENx)*%
X141240000Y-54760000D03*
%TO.P,U1,40,18_A4_SDA*%
%TO.N,Net-(C2-DirBx)*%
X138700000Y-54760000D03*
%TO.P,U1,41,19_A5_SCL*%
%TO.N,Net-(C2-DirAx)*%
X136160000Y-54760000D03*
%TO.P,U1,42,20_A6_TX5_LRCLK1*%
%TO.N,Net-(C2-ENx)*%
X133620000Y-54760000D03*
%TO.P,U1,43,21_A7_RX5_BCLK1*%
%TO.N,Net-(C1-DirBx)*%
X131080000Y-54760000D03*
%TO.P,U1,44,22_A8_CTX1*%
%TO.N,Net-(C1-DirAx)*%
X128540000Y-54760000D03*
%TO.P,U1,45,23_A9_CRX1_MCLK1*%
%TO.N,Net-(C1-ENx)*%
X126000000Y-54760000D03*
%TO.P,U1,46,3V3*%
%TO.N,unconnected-(U1-3V3-Pad46)*%
X123460000Y-54760000D03*
%TO.P,U1,47,GND*%
%TO.N,Net-(J1-Pin_1)*%
X120920000Y-54760000D03*
%TO.P,U1,48,VIN*%
%TO.N,Net-(J1-Pin_2)*%
X118380000Y-54760000D03*
%TO.P,U1,49,VUSB*%
%TO.N,unconnected-(U1-VUSB-Pad49)*%
X120920000Y-57300000D03*
%TO.P,U1,50,VBAT*%
%TO.N,unconnected-(U1-VBAT-Pad50)*%
X164100000Y-67460000D03*
%TO.P,U1,51,3V3*%
%TO.N,unconnected-(U1-3V3-Pad51)*%
X164100000Y-64920000D03*
%TO.P,U1,52,GND*%
%TO.N,unconnected-(U1-GND-Pad52)*%
X164100000Y-62380000D03*
%TO.P,U1,53,PROGRAM*%
%TO.N,unconnected-(U1-PROGRAM-Pad53)*%
X164100000Y-59840000D03*
%TO.P,U1,54,ON_OFF*%
%TO.N,unconnected-(U1-ON_OFF-Pad54)*%
X164100000Y-57300000D03*
D10*
%TO.P,U1,55,5V*%
%TO.N,unconnected-(U1-5V-Pad55)*%
X124679200Y-66949200D03*
D11*
%TO.P,U1,56,D-*%
%TO.N,unconnected-(U1-D--Pad56)*%
X127219200Y-66949200D03*
%TO.P,U1,57,D+*%
%TO.N,unconnected-(U1-D+-Pad57)*%
X129759200Y-66949200D03*
%TO.P,U1,58,GND*%
%TO.N,unconnected-(U1-GND-Pad58)*%
X132299200Y-66949200D03*
%TO.P,U1,59,GND*%
%TO.N,unconnected-(U1-GND-Pad59)*%
X134839200Y-66949200D03*
D12*
%TO.P,U1,60,R+*%
%TO.N,unconnected-(U1-R+-Pad60)*%
X131350000Y-57198400D03*
D13*
%TO.P,U1,61,LED*%
%TO.N,unconnected-(U1-LED-Pad61)*%
X131350000Y-59198400D03*
%TO.P,U1,62,T-*%
%TO.N,unconnected-(U1-T--Pad62)*%
X131350000Y-61198400D03*
%TO.P,U1,63,T+*%
%TO.N,unconnected-(U1-T+-Pad63)*%
X133350000Y-61198400D03*
%TO.P,U1,64,GND*%
%TO.N,unconnected-(U1-GND-Pad64)*%
X133350000Y-59198400D03*
%TO.P,U1,65,R-*%
%TO.N,unconnected-(U1-R--Pad65)*%
X133350000Y-57198400D03*
%TO.P,U1,66,D-*%
%TO.N,unconnected-(U1-D--Pad66)*%
X119110000Y-61110000D03*
%TO.P,U1,67,D+*%
%TO.N,unconnected-(U1-D+-Pad67)*%
X119110000Y-63650000D03*
%TD*%
D14*
%TO.P,LS3,1,SS/*%
%TO.N,Net-(LS3-SS{slash})*%
X144675000Y-78525000D03*
%TO.P,LS3,2,SCK*%
%TO.N,Net-(LS1-SCK)*%
X144675000Y-77875000D03*
%TO.P,LS3,3,MISO*%
%TO.N,Net-(LS1-MISO)*%
X144675000Y-77225000D03*
%TO.P,LS3,4,MOSI*%
%TO.N,Net-(LS1-MOSI)*%
X144675000Y-76575000D03*
%TO.P,LS3,5,Ax*%
%TO.N,Net-(C3-EncAx)*%
X144675000Y-75925000D03*
%TO.P,LS3,6,Bx*%
%TO.N,Net-(C3-EncBx)*%
X144675000Y-75275000D03*
%TO.P,LS3,7,Zx*%
%TO.N,unconnected-(LS3-Zx-Pad7)*%
X144675000Y-74625000D03*
%TO.P,LS3,8,GND*%
%TO.N,Net-(C1-GND)*%
X144675000Y-73975000D03*
%TO.P,LS3,9,CEx*%
%TO.N,unconnected-(LS3-CEx-Pad9)*%
X138925000Y-73975000D03*
%TO.P,LS3,10,FLAGx/*%
%TO.N,unconnected-(LS3-FLAGx{slash}-Pad10)*%
X138925000Y-74625000D03*
%TO.P,LS3,11,Ay*%
%TO.N,Net-(C3-EncAy)*%
X138925000Y-75275000D03*
%TO.P,LS3,12,By*%
%TO.N,Net-(C3-EncBy)*%
X138925000Y-75925000D03*
%TO.P,LS3,13,Zy*%
%TO.N,unconnected-(LS3-Zy-Pad13)*%
X138925000Y-76575000D03*
%TO.P,LS3,14,CEy*%
%TO.N,unconnected-(LS3-CEy-Pad14)*%
X138925000Y-77225000D03*
%TO.P,LS3,15,FLAGy/*%
%TO.N,unconnected-(LS3-FLAGy{slash}-Pad15)*%
X138925000Y-77875000D03*
%TO.P,LS3,16,VDD*%
%TO.N,Net-(C1-3v3)*%
X138925000Y-78525000D03*
%TD*%
D15*
%TO.P,J1,1,Pin_1*%
%TO.N,Net-(J1-Pin_1)*%
X113500000Y-50500000D03*
D16*
%TO.P,J1,2,Pin_2*%
%TO.N,Net-(J1-Pin_2)*%
X113500000Y-53000000D03*
%TD*%
D17*
%TO.P,C2,1,3v3*%
%TO.N,Net-(C1-3v3)*%
X177000000Y-47000000D03*
D18*
%TO.P,C2,2,ENx*%
%TO.N,Net-(C2-ENx)*%
X174500000Y-47000000D03*
%TO.P,C2,3,DirAx*%
%TO.N,Net-(C2-DirAx)*%
X172000000Y-47000000D03*
%TO.P,C2,4,DirBx*%
%TO.N,Net-(C2-DirBx)*%
X169500000Y-47000000D03*
%TO.P,C2,5,EncAx*%
%TO.N,Net-(C2-EncAx)*%
X167000000Y-47000000D03*
%TO.P,C2,6,EncBx*%
%TO.N,Net-(C2-EncBx)*%
X164500000Y-47000000D03*
%TO.P,C2,7,GND*%
%TO.N,Net-(C1-GND)*%
X177000000Y-49500000D03*
%TO.P,C2,8,ENy*%
%TO.N,Net-(C2-ENy)*%
X174500000Y-49500000D03*
%TO.P,C2,9,DirAy*%
%TO.N,Net-(C2-DirAy)*%
X172000000Y-49500000D03*
%TO.P,C2,10,DirBy*%
%TO.N,Net-(C2-DirBy)*%
X169500000Y-49500000D03*
%TO.P,C2,11,EncAy*%
%TO.N,Net-(C2-EncAy)*%
X167000000Y-49500000D03*
%TO.P,C2,12,EncBy*%
%TO.N,Net-(C2-EncBy)*%
X164500000Y-49500000D03*
%TD*%
D17*
%TO.P,C1,1,3v3*%
%TO.N,Net-(C1-3v3)*%
X132000000Y-47000000D03*
D18*
%TO.P,C1,2,ENx*%
%TO.N,Net-(C1-ENx)*%
X129500000Y-47000000D03*
%TO.P,C1,3,DirAx*%
%TO.N,Net-(C1-DirAx)*%
X127000000Y-47000000D03*
%TO.P,C1,4,DirBx*%
%TO.N,Net-(C1-DirBx)*%
X124500000Y-47000000D03*
%TO.P,C1,5,EncAx*%
%TO.N,Net-(C1-EncAx)*%
X122000000Y-47000000D03*
%TO.P,C1,6,EncBx*%
%TO.N,Net-(C1-EncBx)*%
X119500000Y-47000000D03*
%TO.P,C1,7,GND*%
%TO.N,Net-(C1-GND)*%
X132000000Y-49500000D03*
%TO.P,C1,8,ENy*%
%TO.N,Net-(C1-ENy)*%
X129500000Y-49500000D03*
%TO.P,C1,9,DirAy*%
%TO.N,Net-(C1-DirAy)*%
X127000000Y-49500000D03*
%TO.P,C1,10,DirBy*%
%TO.N,Net-(C1-DirBy)*%
X124500000Y-49500000D03*
%TO.P,C1,11,EncAy*%
%TO.N,Net-(C1-EncAy)*%
X122000000Y-49500000D03*
%TO.P,C1,12,EncBy*%
%TO.N,Net-(C1-EncBy)*%
X119500000Y-49500000D03*
%TD*%
D19*
%TO.P,C3,1,3v3*%
%TO.N,Net-(C1-3v3)*%
X119000000Y-77000000D03*
D18*
%TO.P,C3,2,ENx*%
%TO.N,Net-(C3-ENx)*%
X121500000Y-77000000D03*
%TO.P,C3,3,DirAx*%
%TO.N,Net-(C3-DirAx)*%
X124000000Y-77000000D03*
%TO.P,C3,4,DirBx*%
%TO.N,Net-(C3-DirBx)*%
X126500000Y-77000000D03*
%TO.P,C3,5,EncAx*%
%TO.N,Net-(C3-EncAx)*%
X129000000Y-77000000D03*
%TO.P,C3,6,EncBx*%
%TO.N,Net-(C3-EncBx)*%
X131500000Y-77000000D03*
%TO.P,C3,7,GND*%
%TO.N,Net-(C1-GND)*%
X119000000Y-74500000D03*
%TO.P,C3,8,ENy*%
%TO.N,Net-(C3-ENy)*%
X121500000Y-74500000D03*
%TO.P,C3,9,DirAy*%
%TO.N,Net-(C3-DirAy)*%
X124000000Y-74500000D03*
%TO.P,C3,10,DirBy*%
%TO.N,Net-(C3-DirBy)*%
X126500000Y-74500000D03*
%TO.P,C3,11,EncAy*%
%TO.N,Net-(C3-EncAy)*%
X129000000Y-74500000D03*
%TO.P,C3,12,EncBy*%
%TO.N,Net-(C3-EncBy)*%
X131500000Y-74500000D03*
%TD*%
D19*
%TO.P,C4,1,3v3*%
%TO.N,Net-(C1-3v3)*%
X164500000Y-77000000D03*
D18*
%TO.P,C4,2,ENx*%
%TO.N,Net-(C4-ENx)*%
X167000000Y-77000000D03*
%TO.P,C4,3,DirAx*%
%TO.N,Net-(C4-DirAx)*%
X169500000Y-77000000D03*
%TO.P,C4,4,DirBx*%
%TO.N,Net-(C4-DirBx)*%
X172000000Y-77000000D03*
%TO.P,C4,5,EncAx*%
%TO.N,Net-(C4-EncAx)*%
X174500000Y-77000000D03*
%TO.P,C4,6,EncBx*%
%TO.N,Net-(C4-EncBx)*%
X177000000Y-77000000D03*
%TO.P,C4,7,GND*%
%TO.N,Net-(C1-GND)*%
X164500000Y-74500000D03*
%TO.P,C4,8,ENy*%
%TO.N,Net-(C4-ENy)*%
X167000000Y-74500000D03*
%TO.P,C4,9,DirAy*%
%TO.N,Net-(C4-DirAy)*%
X169500000Y-74500000D03*
%TO.P,C4,10,DirBy*%
%TO.N,Net-(C4-DirBy)*%
X172000000Y-74500000D03*
%TO.P,C4,11,EncAy*%
%TO.N,Net-(C4-EncAy)*%
X174500000Y-74500000D03*
%TO.P,C4,12,EncBy*%
%TO.N,Net-(C4-EncBy)*%
X177000000Y-74500000D03*
%TD*%
D20*
%TO.P,LS1,1,SS/*%
%TO.N,Net-(LS1-SS{slash})*%
X139325000Y-45450000D03*
%TO.P,LS1,2,SCK*%
%TO.N,Net-(LS1-SCK)*%
X139325000Y-46100000D03*
%TO.P,LS1,3,MISO*%
%TO.N,Net-(LS1-MISO)*%
X139325000Y-46750000D03*
%TO.P,LS1,4,MOSI*%
%TO.N,Net-(LS1-MOSI)*%
X139325000Y-47400000D03*
%TO.P,LS1,5,Ax*%
%TO.N,Net-(C1-EncAx)*%
X139325000Y-48050000D03*
%TO.P,LS1,6,Bx*%
%TO.N,Net-(C1-EncBx)*%
X139325000Y-48700000D03*
%TO.P,LS1,7,Zx*%
%TO.N,unconnected-(LS1-Zx-Pad7)*%
X139325000Y-49350000D03*
%TO.P,LS1,8,GND*%
%TO.N,Net-(C1-GND)*%
X139325000Y-50000000D03*
%TO.P,LS1,9,CEx*%
%TO.N,unconnected-(LS1-CEx-Pad9)*%
X145075000Y-50000000D03*
%TO.P,LS1,10,FLAGx/*%
%TO.N,unconnected-(LS1-FLAGx{slash}-Pad10)*%
X145075000Y-49350000D03*
%TO.P,LS1,11,Ay*%
%TO.N,Net-(C1-EncAy)*%
X145075000Y-48700000D03*
%TO.P,LS1,12,By*%
%TO.N,Net-(C1-EncBy)*%
X145075000Y-48050000D03*
%TO.P,LS1,13,Zy*%
%TO.N,unconnected-(LS1-Zy-Pad13)*%
X145075000Y-47400000D03*
%TO.P,LS1,14,CEy*%
%TO.N,unconnected-(LS1-CEy-Pad14)*%
X145075000Y-46750000D03*
%TO.P,LS1,15,FLAGy/*%
%TO.N,unconnected-(LS1-FLAGy{slash}-Pad15)*%
X145075000Y-46100000D03*
%TO.P,LS1,16,VDD*%
%TO.N,Net-(C1-3v3)*%
X145075000Y-45450000D03*
%TD*%
%TO.P,LS2,1,SS/*%
%TO.N,Net-(LS2-SS{slash})*%
X152325000Y-45450000D03*
%TO.P,LS2,2,SCK*%
%TO.N,Net-(LS1-SCK)*%
X152325000Y-46100000D03*
%TO.P,LS2,3,MISO*%
%TO.N,Net-(LS1-MISO)*%
X152325000Y-46750000D03*
%TO.P,LS2,4,MOSI*%
%TO.N,Net-(LS1-MOSI)*%
X152325000Y-47400000D03*
%TO.P,LS2,5,Ax*%
%TO.N,Net-(C2-EncAx)*%
X152325000Y-48050000D03*
%TO.P,LS2,6,Bx*%
%TO.N,Net-(C2-EncBx)*%
X152325000Y-48700000D03*
%TO.P,LS2,7,Zx*%
%TO.N,unconnected-(LS2-Zx-Pad7)*%
X152325000Y-49350000D03*
%TO.P,LS2,8,GND*%
%TO.N,Net-(C1-GND)*%
X152325000Y-50000000D03*
%TO.P,LS2,9,CEx*%
%TO.N,unconnected-(LS2-CEx-Pad9)*%
X158075000Y-50000000D03*
%TO.P,LS2,10,FLAGx/*%
%TO.N,unconnected-(LS2-FLAGx{slash}-Pad10)*%
X158075000Y-49350000D03*
%TO.P,LS2,11,Ay*%
%TO.N,Net-(C2-EncAy)*%
X158075000Y-48700000D03*
%TO.P,LS2,12,By*%
%TO.N,Net-(C2-EncBy)*%
X158075000Y-48050000D03*
%TO.P,LS2,13,Zy*%
%TO.N,unconnected-(LS2-Zy-Pad13)*%
X158075000Y-47400000D03*
%TO.P,LS2,14,CEy*%
%TO.N,unconnected-(LS2-CEy-Pad14)*%
X158075000Y-46750000D03*
%TO.P,LS2,15,FLAGy/*%
%TO.N,unconnected-(LS2-FLAGy{slash}-Pad15)*%
X158075000Y-46100000D03*
%TO.P,LS2,16,VDD*%
%TO.N,Net-(C1-3v3)*%
X158075000Y-45450000D03*
%TD*%
D14*
%TO.P,LS4,1,SS/*%
%TO.N,Net-(LS4-SS{slash})*%
X157675000Y-78525000D03*
%TO.P,LS4,2,SCK*%
%TO.N,Net-(LS1-SCK)*%
X157675000Y-77875000D03*
%TO.P,LS4,3,MISO*%
%TO.N,Net-(LS1-MISO)*%
X157675000Y-77225000D03*
%TO.P,LS4,4,MOSI*%
%TO.N,Net-(LS1-MOSI)*%
X157675000Y-76575000D03*
%TO.P,LS4,5,Ax*%
%TO.N,Net-(C4-EncAx)*%
X157675000Y-75925000D03*
%TO.P,LS4,6,Bx*%
%TO.N,Net-(C4-EncBx)*%
X157675000Y-75275000D03*
%TO.P,LS4,7,Zx*%
%TO.N,unconnected-(LS4-Zx-Pad7)*%
X157675000Y-74625000D03*
%TO.P,LS4,8,GND*%
%TO.N,Net-(C1-GND)*%
X157675000Y-73975000D03*
%TO.P,LS4,9,CEx*%
%TO.N,unconnected-(LS4-CEx-Pad9)*%
X151925000Y-73975000D03*
%TO.P,LS4,10,FLAGx/*%
%TO.N,unconnected-(LS4-FLAGx{slash}-Pad10)*%
X151925000Y-74625000D03*
%TO.P,LS4,11,Ay*%
%TO.N,Net-(C4-EncAy)*%
X151925000Y-75275000D03*
%TO.P,LS4,12,By*%
%TO.N,Net-(C4-EncBy)*%
X151925000Y-75925000D03*
%TO.P,LS4,13,Zy*%
%TO.N,unconnected-(LS4-Zy-Pad13)*%
X151925000Y-76575000D03*
%TO.P,LS4,14,CEy*%
%TO.N,unconnected-(LS4-CEy-Pad14)*%
X151925000Y-77225000D03*
%TO.P,LS4,15,FLAGy/*%
%TO.N,unconnected-(LS4-FLAGy{slash}-Pad15)*%
X151925000Y-77875000D03*
%TO.P,LS4,16,VDD*%
%TO.N,Net-(C1-3v3)*%
X151925000Y-78525000D03*
%TD*%
D21*
%TO.N,*%
X112000000Y-43000000D03*
X112000000Y-81000000D03*
X182000000Y-81000000D03*
X182000000Y-43000000D03*
D22*
%TO.N,Net-(C1-EncAx)*%
X135837438Y-49314035D03*
%TO.N,Net-(C1-GND)*%
X145000000Y-68500000D03*
%TO.N,Net-(C1-EncAy)*%
X148000000Y-49500000D03*
%TO.N,Net-(C1-EncBx)*%
X135237438Y-50262562D03*
%TO.N,Net-(C1-EncBy)*%
X149000000Y-49000000D03*
%TO.N,Net-(C4-EncBx)*%
X160960000Y-75000000D03*
%TO.N,Net-(C2-EncAx)*%
X163000000Y-45500000D03*
X150500000Y-48000000D03*
%TO.N,Net-(C3-EncBx)*%
X147529271Y-75334129D03*
%TO.N,Net-(C3-EncAx)*%
X148000000Y-76000000D03*
%TO.N,Net-(C4-EncAy)*%
X150560000Y-75000000D03*
%TO.N,Net-(C4-EncBy)*%
X150560000Y-76000000D03*
%TO.N,Net-(LS1-MISO)*%
X150000000Y-46800000D03*
X136000000Y-47000000D03*
X147500000Y-59000000D03*
%TO.N,Net-(LS1-SCK)*%
X151500000Y-61000000D03*
X160500000Y-78487868D03*
X137000000Y-46050000D03*
X149102608Y-77625000D03*
X149000000Y-46000000D03*
%TO.N,Net-(LS1-MOSI)*%
X149000000Y-47000000D03*
X142488235Y-54011765D03*
X135884897Y-48418047D03*
X160758533Y-77730791D03*
%TO.N,Net-(LS2-SS{slash})*%
X150000000Y-45000000D03*
%TO.N,Net-(LS3-SS{slash})*%
X147500000Y-78525000D03*
%TO.N,Net-(LS4-SS{slash})*%
X159500000Y-78900000D03*
%TO.N,Net-(C2-EncBx)*%
X161000000Y-47000000D03*
X150500000Y-49000000D03*
%TD*%
D23*
%TO.N,Net-(C1-EncAx)*%
X135837438Y-49314035D02*
X137101473Y-48050000D01*
X137101473Y-48050000D02*
X139325000Y-48050000D01*
%TO.N,Net-(C1-GND)*%
X163975000Y-73975000D02*
X157675000Y-73975000D01*
X145000000Y-73650000D02*
X145000000Y-68500000D01*
X139325000Y-50000000D02*
X142985000Y-53660000D01*
X153940000Y-51615000D02*
X153940000Y-54760000D01*
X142985000Y-53660000D02*
X152840000Y-53660000D01*
X144675000Y-73975000D02*
X145000000Y-73650000D01*
X164500000Y-74500000D02*
X163975000Y-73975000D01*
X152840000Y-53660000D02*
X153940000Y-54760000D01*
X152325000Y-50000000D02*
X153940000Y-51615000D01*
%TO.N,Net-(C1-EncAy)*%
X145075000Y-48700000D02*
X147200000Y-48700000D01*
X147200000Y-48700000D02*
X148000000Y-49500000D01*
%TO.N,Net-(C1-EncBx)*%
X135237438Y-50262562D02*
X135737438Y-50262562D01*
X135737438Y-50262562D02*
X137300000Y-48700000D01*
X137300000Y-48700000D02*
X139325000Y-48700000D01*
%TO.N,Net-(C1-EncBy)*%
X145075000Y-48050000D02*
X148050000Y-48050000D01*
X148050000Y-48050000D02*
X149000000Y-49000000D01*
%TO.N,Net-(C4-EncBx)*%
X157675000Y-75275000D02*
X160685000Y-75275000D01*
X160685000Y-75275000D02*
X160960000Y-75000000D01*
%TO.N,Net-(C4-EncAx)*%
X157750000Y-75850000D02*
X173350000Y-75850000D01*
X173350000Y-75850000D02*
X174500000Y-77000000D01*
X157675000Y-75925000D02*
X157750000Y-75850000D01*
D24*
%TO.N,Net-(C1-3v3)*%
X174610000Y-44610000D02*
X158915000Y-44610000D01*
X151925000Y-78525000D02*
X153400000Y-80000000D01*
X166890000Y-79390000D02*
X176307057Y-79390000D01*
X145075000Y-45450000D02*
X145075000Y-45075000D01*
X163000000Y-80000000D02*
X164500000Y-78500000D01*
X144000000Y-44000000D02*
X135000000Y-44000000D01*
X119000000Y-77000000D02*
X121390000Y-79390000D01*
X157000000Y-44000000D02*
X146525000Y-44000000D01*
X138060000Y-79390000D02*
X138925000Y-78525000D01*
D23*
X155380000Y-68560000D02*
X178940000Y-68560000D01*
D24*
X158075000Y-45450000D02*
X157525000Y-44900000D01*
X138925000Y-78525000D02*
X140400000Y-80000000D01*
X164500000Y-78500000D02*
X164500000Y-77000000D01*
X177000000Y-47000000D02*
X174610000Y-44610000D01*
X164500000Y-77000000D02*
X166890000Y-79390000D01*
X176307057Y-79390000D02*
X179000000Y-76697057D01*
X179000000Y-76697057D02*
X179000000Y-68500000D01*
X157525000Y-44525000D02*
X157000000Y-44000000D01*
D23*
X153940000Y-70000000D02*
X155380000Y-68560000D01*
D24*
X157525000Y-44900000D02*
X157525000Y-44525000D01*
X146525000Y-44000000D02*
X145075000Y-45450000D01*
X158915000Y-44610000D02*
X158075000Y-45450000D01*
X121390000Y-79390000D02*
X138060000Y-79390000D01*
D23*
X178940000Y-68560000D02*
X179000000Y-68500000D01*
D24*
X140400000Y-80000000D02*
X150450000Y-80000000D01*
X179000000Y-49000000D02*
X177000000Y-47000000D01*
X135000000Y-44000000D02*
X132000000Y-47000000D01*
X179000000Y-68500000D02*
X179000000Y-49000000D01*
X153400000Y-80000000D02*
X163000000Y-80000000D01*
X150450000Y-80000000D02*
X151925000Y-78525000D01*
X145075000Y-45075000D02*
X144000000Y-44000000D01*
D23*
%TO.N,Net-(C2-EncAy)*%
X162073654Y-48700000D02*
X164023654Y-50650000D01*
X164023654Y-50650000D02*
X165850000Y-50650000D01*
X165850000Y-50650000D02*
X167000000Y-49500000D01*
X158075000Y-48700000D02*
X162073654Y-48700000D01*
%TO.N,Net-(C2-EncBy)*%
X163050000Y-48050000D02*
X164500000Y-49500000D01*
X158075000Y-48050000D02*
X163050000Y-48050000D01*
%TO.N,Net-(C2-EncAx)*%
X150500000Y-48000000D02*
X152275000Y-48000000D01*
X167000000Y-47000000D02*
X165500000Y-45500000D01*
X152275000Y-48000000D02*
X152325000Y-48050000D01*
X165500000Y-45500000D02*
X163000000Y-45500000D01*
%TO.N,Net-(C3-EncBy)*%
X131500000Y-74500000D02*
X132925000Y-75925000D01*
X132925000Y-75925000D02*
X138925000Y-75925000D01*
%TO.N,Net-(C3-EncBx)*%
X144675000Y-75275000D02*
X147470142Y-75275000D01*
X147470142Y-75275000D02*
X147529271Y-75334129D01*
%TO.N,Net-(C3-EncAy)*%
X134275000Y-75275000D02*
X138925000Y-75275000D01*
X130150000Y-73350000D02*
X132350000Y-73350000D01*
X129000000Y-74500000D02*
X130150000Y-73350000D01*
X132350000Y-73350000D02*
X134275000Y-75275000D01*
%TO.N,Net-(C3-EncAx)*%
X147500000Y-76000000D02*
X147425000Y-75925000D01*
X147425000Y-75925000D02*
X144675000Y-75925000D01*
X148000000Y-76000000D02*
X147500000Y-76000000D01*
D25*
%TO.N,Net-(J1-Pin_2)*%
X116620000Y-53000000D02*
X113500000Y-53000000D01*
X116620000Y-53000000D02*
X118380000Y-54760000D01*
%TO.N,Net-(J1-Pin_1)*%
X116660000Y-50500000D02*
X113500000Y-50500000D01*
X120920000Y-54760000D02*
X116660000Y-50500000D01*
D23*
%TO.N,Net-(C4-EncAy)*%
X150835000Y-75275000D02*
X150560000Y-75000000D01*
X151925000Y-75275000D02*
X150835000Y-75275000D01*
%TO.N,Net-(C4-EncBy)*%
X151850000Y-76000000D02*
X151925000Y-75925000D01*
X150560000Y-76000000D02*
X151850000Y-76000000D01*
D24*
%TO.N,Net-(C1-DirBx)*%
X130260000Y-54760000D02*
X131080000Y-54760000D01*
D23*
%TO.N,Net-(LS1-MISO)*%
X136250000Y-46750000D02*
X136000000Y-47000000D01*
X149260000Y-76305686D02*
X148340686Y-77225000D01*
X150000000Y-46800000D02*
X150050000Y-46750000D01*
X157675000Y-77225000D02*
X156981544Y-77225000D01*
X151400000Y-71643456D02*
X150850000Y-72193456D01*
X139325000Y-46750000D02*
X136250000Y-46750000D01*
X148340686Y-77225000D02*
X144675000Y-77225000D01*
X149260000Y-73240000D02*
X149260000Y-76305686D01*
X151400000Y-62900000D02*
X151400000Y-70000000D01*
X151400000Y-71643456D02*
X151400000Y-70000000D01*
X150306544Y-72193456D02*
X149260000Y-73240000D01*
X150050000Y-46750000D02*
X152325000Y-46750000D01*
X147500000Y-59000000D02*
X151400000Y-62900000D01*
X156981544Y-77225000D02*
X151400000Y-71643456D01*
X150850000Y-72193456D02*
X150306544Y-72193456D01*
%TO.N,Net-(LS1-SS{slash})*%
X134186396Y-45450000D02*
X133150000Y-46486396D01*
X133150000Y-47834744D02*
X132834744Y-48150000D01*
X132834744Y-48150000D02*
X131523654Y-48150000D01*
X126000000Y-66612765D02*
X126000000Y-70000000D01*
X133150000Y-46486396D02*
X133150000Y-47834744D01*
X130650000Y-49976346D02*
X129810000Y-50816346D01*
X139325000Y-45450000D02*
X134186396Y-45450000D01*
X130650000Y-49023654D02*
X130650000Y-49976346D01*
X129810000Y-50816346D02*
X129810000Y-62802765D01*
X129810000Y-62802765D02*
X126000000Y-66612765D01*
X131523654Y-48150000D02*
X130650000Y-49023654D01*
%TO.N,Net-(LS1-SCK)*%
X151500000Y-61000000D02*
X151400000Y-60900000D01*
X149102608Y-77625000D02*
X146375000Y-77625000D01*
X146375000Y-77625000D02*
X146125000Y-77875000D01*
X160500000Y-78487868D02*
X159887132Y-77875000D01*
X159887132Y-77875000D02*
X157675000Y-77875000D01*
X149100000Y-46100000D02*
X152325000Y-46100000D01*
X137050000Y-46100000D02*
X137000000Y-46050000D01*
X151400000Y-60900000D02*
X151400000Y-54760000D01*
X149000000Y-46000000D02*
X149100000Y-46100000D01*
X139325000Y-46100000D02*
X137050000Y-46100000D01*
X146125000Y-77875000D02*
X144675000Y-77875000D01*
%TO.N,Net-(LS1-MOSI)*%
X136902944Y-47400000D02*
X139325000Y-47400000D01*
X149200000Y-47000000D02*
X149600000Y-47400000D01*
X144700000Y-76600000D02*
X148400000Y-76600000D01*
X160758533Y-77730791D02*
X159602742Y-76575000D01*
X142488235Y-63628235D02*
X148860000Y-70000000D01*
X148400000Y-76600000D02*
X148860000Y-76140000D01*
X142488235Y-54011765D02*
X142488235Y-63628235D01*
X148860000Y-76140000D02*
X148860000Y-70000000D01*
X149600000Y-47400000D02*
X152325000Y-47400000D01*
X135884897Y-48418047D02*
X136902944Y-47400000D01*
X159602742Y-76575000D02*
X157675000Y-76575000D01*
X144675000Y-76575000D02*
X144700000Y-76600000D01*
X149000000Y-47000000D02*
X149200000Y-47000000D01*
%TO.N,Net-(LS2-SS{slash})*%
X150450000Y-45450000D02*
X150000000Y-45000000D01*
X152325000Y-45450000D02*
X150450000Y-45450000D01*
%TO.N,Net-(LS3-SS{slash})*%
X147500000Y-78525000D02*
X144675000Y-78525000D01*
%TO.N,Net-(LS4-SS{slash})*%
X159500000Y-78900000D02*
X159125000Y-78525000D01*
X159125000Y-78525000D02*
X157675000Y-78525000D01*
D24*
%TO.N,Net-(C1-ENy)*%
X129500000Y-49500000D02*
X129986346Y-49500000D01*
%TO.N,Net-(C1-DirAy)*%
X127000000Y-49500000D02*
X127446346Y-49500000D01*
D23*
%TO.N,Net-(C2-EncBx)*%
X164500000Y-47000000D02*
X161000000Y-47000000D01*
X150500000Y-49000000D02*
X150800000Y-48700000D01*
X150800000Y-48700000D02*
X152325000Y-48700000D01*
%TD*%
M02*
