%TF.GenerationSoftware,KiCad,Pcbnew,8.0.9-8.0.9-0~ubuntu22.04.1*%
%TF.CreationDate,2025-03-21T08:59:58-04:00*%
%TF.ProjectId,WS_Wheel_PCB,57535f57-6865-4656-9c5f-5043422e6b69,rev?*%
%TF.SameCoordinates,Original*%
%TF.FileFunction,Copper,L2,Inr*%
%TF.FilePolarity,Positive*%
%FSLAX46Y46*%
G04 Gerber Fmt 4.6, Leading zero omitted, Abs format (unit mm)*
G04 Created by KiCad (PCBNEW 8.0.9-8.0.9-0~ubuntu22.04.1) date 2025-03-21 08:59:58*
%MOMM*%
%LPD*%
G01*
G04 APERTURE LIST*
G04 Aperture macros list*
%AMRoundRect*
0 Rectangle with rounded corners*
0 $1 Rounding radius*
0 $2 $3 $4 $5 $6 $7 $8 $9 X,Y pos of 4 corners*
0 Add a 4 corners polygon primitive as box body*
4,1,4,$2,$3,$4,$5,$6,$7,$8,$9,$2,$3,0*
0 Add four circle primitives for the rounded corners*
1,1,$1+$1,$2,$3*
1,1,$1+$1,$4,$5*
1,1,$1+$1,$6,$7*
1,1,$1+$1,$8,$9*
0 Add four rect primitives between the rounded corners*
20,1,$1+$1,$2,$3,$4,$5,0*
20,1,$1+$1,$4,$5,$6,$7,0*
20,1,$1+$1,$6,$7,$8,$9,0*
20,1,$1+$1,$8,$9,$2,$3,0*%
%AMFreePoly0*
4,1,22,0.945671,0.830970,1.026777,0.776777,1.080970,0.695671,1.100000,0.600000,1.100000,-0.600000,1.080970,-0.695671,1.026777,-0.776777,0.945671,-0.830970,0.850000,-0.850000,-0.450000,-0.850000,-0.545671,-0.830970,-0.626777,-0.776777,-1.026777,-0.376777,-1.080970,-0.295671,-1.100000,-0.200000,-1.100000,0.600000,-1.080970,0.695671,-1.026777,0.776777,-0.945671,0.830970,-0.850000,0.850000,
0.850000,0.850000,0.945671,0.830970,0.945671,0.830970,$1*%
G04 Aperture macros list end*
%TA.AperFunction,ComponentPad*%
%ADD10R,1.600000X1.600000*%
%TD*%
%TA.AperFunction,ComponentPad*%
%ADD11C,1.600000*%
%TD*%
%TA.AperFunction,ComponentPad*%
%ADD12R,1.300000X1.300000*%
%TD*%
%TA.AperFunction,ComponentPad*%
%ADD13C,1.300000*%
%TD*%
%TA.AperFunction,ComponentPad*%
%ADD14FreePoly0,0.000000*%
%TD*%
%TA.AperFunction,ComponentPad*%
%ADD15O,2.200000X1.700000*%
%TD*%
%TA.AperFunction,ComponentPad*%
%ADD16RoundRect,0.250000X-0.600000X0.600000X-0.600000X-0.600000X0.600000X-0.600000X0.600000X0.600000X0*%
%TD*%
%TA.AperFunction,ComponentPad*%
%ADD17C,1.700000*%
%TD*%
%TA.AperFunction,ComponentPad*%
%ADD18RoundRect,0.250000X0.600000X-0.600000X0.600000X0.600000X-0.600000X0.600000X-0.600000X-0.600000X0*%
%TD*%
%TA.AperFunction,ViaPad*%
%ADD19C,4.000000*%
%TD*%
%TA.AperFunction,ViaPad*%
%ADD20C,0.600000*%
%TD*%
%TA.AperFunction,Conductor*%
%ADD21C,0.200000*%
%TD*%
G04 APERTURE END LIST*
D10*
%TO.N,unconnected-(U1-GND-Pad1)*%
%TO.C,U1*%
X118380000Y-70000000D03*
D11*
%TO.N,unconnected-(U1-0_RX1_CRX2_CS1-Pad2)*%
X120920000Y-70000000D03*
%TO.N,unconnected-(U1-1_TX1_CTX2_MISO1-Pad3)*%
X123460000Y-70000000D03*
%TO.N,Net-(LS1-SS{slash})*%
X126000000Y-70000000D03*
%TO.N,Net-(LS2-SS{slash})*%
X128540000Y-70000000D03*
%TO.N,Net-(LS4-SS{slash})*%
X131080000Y-70000000D03*
%TO.N,Net-(LS3-SS{slash})*%
X133620000Y-70000000D03*
%TO.N,Net-(C1-ENy)*%
X136160000Y-70000000D03*
%TO.N,Net-(C1-DirAy)*%
X138700000Y-70000000D03*
%TO.N,Net-(C1-DirBy)*%
X141240000Y-70000000D03*
%TO.N,unconnected-(U1-9_OUT1C-Pad11)*%
X143780000Y-70000000D03*
%TO.N,unconnected-(U1-10_CS_MQSR-Pad12)*%
X146320000Y-70000000D03*
%TO.N,Net-(LS1-MOSI)*%
X148860000Y-70000000D03*
%TO.N,Net-(LS1-MISO)*%
X151400000Y-70000000D03*
%TO.N,Net-(C1-3v3)*%
X153940000Y-70000000D03*
%TO.N,Net-(C2-ENy)*%
X156480000Y-70000000D03*
%TO.N,Net-(C2-DirAy)*%
X159020000Y-70000000D03*
%TO.N,Net-(C2-DirBy)*%
X161560000Y-70000000D03*
%TO.N,Net-(C3-ENy)*%
X164100000Y-70000000D03*
%TO.N,Net-(C3-DirAy)*%
X166640000Y-70000000D03*
%TO.N,Net-(C3-DirBy)*%
X169180000Y-70000000D03*
%TO.N,Net-(C4-ENy)*%
X171720000Y-70000000D03*
%TO.N,Net-(C4-DirAy)*%
X174260000Y-70000000D03*
%TO.N,Net-(C4-DirBy)*%
X176800000Y-70000000D03*
%TO.N,unconnected-(U1-33_MCLK2-Pad25)*%
X176800000Y-54760000D03*
%TO.N,unconnected-(U1-34_RX8-Pad26)*%
X174260000Y-54760000D03*
%TO.N,unconnected-(U1-35_TX8-Pad27)*%
X171720000Y-54760000D03*
%TO.N,unconnected-(U1-36_CS-Pad28)*%
X169180000Y-54760000D03*
%TO.N,unconnected-(U1-37_CS-Pad29)*%
X166640000Y-54760000D03*
%TO.N,Net-(C3-DirBx)*%
X164100000Y-54760000D03*
%TO.N,Net-(C4-DirBx)*%
X161560000Y-54760000D03*
%TO.N,Net-(C4-DirAx)*%
X159020000Y-54760000D03*
%TO.N,Net-(C4-ENx)*%
X156480000Y-54760000D03*
%TO.N,Net-(C1-GND)*%
X153940000Y-54760000D03*
%TO.N,Net-(LS1-SCK)*%
X151400000Y-54760000D03*
%TO.N,unconnected-(U1-14_A0_TX3_SPDIF_OUT-Pad36)*%
X148860000Y-54760000D03*
%TO.N,unconnected-(U1-15_A1_RX3_SPDIF_IN-Pad37)*%
X146320000Y-54760000D03*
%TO.N,Net-(C3-DirAx)*%
X143780000Y-54760000D03*
%TO.N,Net-(C3-ENx)*%
X141240000Y-54760000D03*
%TO.N,Net-(C2-DirBx)*%
X138700000Y-54760000D03*
%TO.N,Net-(C2-DirAx)*%
X136160000Y-54760000D03*
%TO.N,Net-(C2-ENx)*%
X133620000Y-54760000D03*
%TO.N,Net-(C1-DirBx)*%
X131080000Y-54760000D03*
%TO.N,Net-(C1-DirAx)*%
X128540000Y-54760000D03*
%TO.N,Net-(C1-ENx)*%
X126000000Y-54760000D03*
%TO.N,unconnected-(U1-3V3-Pad46)*%
X123460000Y-54760000D03*
%TO.N,Net-(J1-Pin_1)*%
X120920000Y-54760000D03*
%TO.N,Net-(J1-Pin_2)*%
X118380000Y-54760000D03*
%TO.N,unconnected-(U1-VUSB-Pad49)*%
X120920000Y-57300000D03*
%TO.N,unconnected-(U1-VBAT-Pad50)*%
X164100000Y-67460000D03*
%TO.N,unconnected-(U1-3V3-Pad51)*%
X164100000Y-64920000D03*
%TO.N,unconnected-(U1-GND-Pad52)*%
X164100000Y-62380000D03*
%TO.N,unconnected-(U1-PROGRAM-Pad53)*%
X164100000Y-59840000D03*
%TO.N,unconnected-(U1-ON_OFF-Pad54)*%
X164100000Y-57300000D03*
D10*
%TO.N,unconnected-(U1-5V-Pad55)*%
X124679200Y-66949200D03*
D11*
%TO.N,unconnected-(U1-D--Pad56)*%
X127219200Y-66949200D03*
%TO.N,unconnected-(U1-D+-Pad57)*%
X129759200Y-66949200D03*
%TO.N,unconnected-(U1-GND-Pad58)*%
X132299200Y-66949200D03*
%TO.N,unconnected-(U1-GND-Pad59)*%
X134839200Y-66949200D03*
D12*
%TO.N,unconnected-(U1-R+-Pad60)*%
X131350000Y-57198400D03*
D13*
%TO.N,unconnected-(U1-LED-Pad61)*%
X131350000Y-59198400D03*
%TO.N,unconnected-(U1-T--Pad62)*%
X131350000Y-61198400D03*
%TO.N,unconnected-(U1-T+-Pad63)*%
X133350000Y-61198400D03*
%TO.N,unconnected-(U1-GND-Pad64)*%
X133350000Y-59198400D03*
%TO.N,unconnected-(U1-R--Pad65)*%
X133350000Y-57198400D03*
%TO.N,unconnected-(U1-D--Pad66)*%
X119110000Y-61110000D03*
%TO.N,unconnected-(U1-D+-Pad67)*%
X119110000Y-63650000D03*
%TD*%
D14*
%TO.N,Net-(J1-Pin_1)*%
%TO.C,J1*%
X113500000Y-50500000D03*
D15*
%TO.N,Net-(J1-Pin_2)*%
X113500000Y-53000000D03*
%TD*%
D16*
%TO.N,Net-(C1-3v3)*%
%TO.C,C2*%
X177000000Y-47000000D03*
D17*
%TO.N,Net-(C2-ENx)*%
X174500000Y-47000000D03*
%TO.N,Net-(C2-DirAx)*%
X172000000Y-47000000D03*
%TO.N,Net-(C2-DirBx)*%
X169500000Y-47000000D03*
%TO.N,Net-(C2-EncAx)*%
X167000000Y-47000000D03*
%TO.N,Net-(C2-EncBx)*%
X164500000Y-47000000D03*
%TO.N,Net-(C1-GND)*%
X177000000Y-49500000D03*
%TO.N,Net-(C2-ENy)*%
X174500000Y-49500000D03*
%TO.N,Net-(C2-DirAy)*%
X172000000Y-49500000D03*
%TO.N,Net-(C2-DirBy)*%
X169500000Y-49500000D03*
%TO.N,Net-(C2-EncAy)*%
X167000000Y-49500000D03*
%TO.N,Net-(C2-EncBy)*%
X164500000Y-49500000D03*
%TD*%
D16*
%TO.N,Net-(C1-3v3)*%
%TO.C,C1*%
X132000000Y-47000000D03*
D17*
%TO.N,Net-(C1-ENx)*%
X129500000Y-47000000D03*
%TO.N,Net-(C1-DirAx)*%
X127000000Y-47000000D03*
%TO.N,Net-(C1-DirBx)*%
X124500000Y-47000000D03*
%TO.N,Net-(C1-EncAx)*%
X122000000Y-47000000D03*
%TO.N,Net-(C1-EncBx)*%
X119500000Y-47000000D03*
%TO.N,Net-(C1-GND)*%
X132000000Y-49500000D03*
%TO.N,Net-(C1-ENy)*%
X129500000Y-49500000D03*
%TO.N,Net-(C1-DirAy)*%
X127000000Y-49500000D03*
%TO.N,Net-(C1-DirBy)*%
X124500000Y-49500000D03*
%TO.N,Net-(C1-EncAy)*%
X122000000Y-49500000D03*
%TO.N,Net-(C1-EncBy)*%
X119500000Y-49500000D03*
%TD*%
D18*
%TO.N,Net-(C1-3v3)*%
%TO.C,C3*%
X119000000Y-77000000D03*
D17*
%TO.N,Net-(C3-ENx)*%
X121500000Y-77000000D03*
%TO.N,Net-(C3-DirAx)*%
X124000000Y-77000000D03*
%TO.N,Net-(C3-DirBx)*%
X126500000Y-77000000D03*
%TO.N,Net-(C3-EncAx)*%
X129000000Y-77000000D03*
%TO.N,Net-(C3-EncBx)*%
X131500000Y-77000000D03*
%TO.N,Net-(C1-GND)*%
X119000000Y-74500000D03*
%TO.N,Net-(C3-ENy)*%
X121500000Y-74500000D03*
%TO.N,Net-(C3-DirAy)*%
X124000000Y-74500000D03*
%TO.N,Net-(C3-DirBy)*%
X126500000Y-74500000D03*
%TO.N,Net-(C3-EncAy)*%
X129000000Y-74500000D03*
%TO.N,Net-(C3-EncBy)*%
X131500000Y-74500000D03*
%TD*%
D18*
%TO.N,Net-(C1-3v3)*%
%TO.C,C4*%
X164500000Y-77000000D03*
D17*
%TO.N,Net-(C4-ENx)*%
X167000000Y-77000000D03*
%TO.N,Net-(C4-DirAx)*%
X169500000Y-77000000D03*
%TO.N,Net-(C4-DirBx)*%
X172000000Y-77000000D03*
%TO.N,Net-(C4-EncAx)*%
X174500000Y-77000000D03*
%TO.N,Net-(C4-EncBx)*%
X177000000Y-77000000D03*
%TO.N,Net-(C1-GND)*%
X164500000Y-74500000D03*
%TO.N,Net-(C4-ENy)*%
X167000000Y-74500000D03*
%TO.N,Net-(C4-DirAy)*%
X169500000Y-74500000D03*
%TO.N,Net-(C4-DirBy)*%
X172000000Y-74500000D03*
%TO.N,Net-(C4-EncAy)*%
X174500000Y-74500000D03*
%TO.N,Net-(C4-EncBy)*%
X177000000Y-74500000D03*
%TD*%
D19*
%TO.N,*%
X112000000Y-43000000D03*
X112000000Y-81000000D03*
X182000000Y-81000000D03*
X182000000Y-43000000D03*
D20*
%TO.N,Net-(C1-EncAx)*%
X135837438Y-49314035D03*
%TO.N,Net-(C1-GND)*%
X145000000Y-68500000D03*
%TO.N,Net-(C1-EncAy)*%
X148000000Y-49500000D03*
%TO.N,Net-(C1-EncBx)*%
X135237438Y-50262562D03*
%TO.N,Net-(C1-EncBy)*%
X149000000Y-49000000D03*
%TO.N,Net-(C4-EncBx)*%
X160960000Y-75000000D03*
%TO.N,Net-(C2-EncAx)*%
X163000000Y-45500000D03*
X150500000Y-48000000D03*
%TO.N,Net-(C3-EncBx)*%
X147529271Y-75334129D03*
%TO.N,Net-(C3-EncAx)*%
X148000000Y-76000000D03*
%TO.N,Net-(C4-EncAy)*%
X150560000Y-75000000D03*
%TO.N,Net-(C4-EncBy)*%
X150560000Y-76000000D03*
%TO.N,Net-(LS1-MISO)*%
X150000000Y-46800000D03*
X136000000Y-47000000D03*
X147500000Y-59000000D03*
%TO.N,Net-(LS1-SCK)*%
X151500000Y-61000000D03*
X160500000Y-78487868D03*
X137000000Y-46050000D03*
X149102608Y-77625000D03*
X149000000Y-46000000D03*
%TO.N,Net-(LS1-MOSI)*%
X149000000Y-47000000D03*
X142488235Y-54011765D03*
X135884897Y-48418047D03*
X160758533Y-77730791D03*
%TO.N,Net-(LS2-SS{slash})*%
X150000000Y-45000000D03*
%TO.N,Net-(LS3-SS{slash})*%
X147500000Y-78525000D03*
%TO.N,Net-(LS4-SS{slash})*%
X159500000Y-78900000D03*
%TO.N,Net-(C2-EncBx)*%
X161000000Y-47000000D03*
X150500000Y-49000000D03*
%TD*%
D21*
%TO.N,Net-(C1-EncAx)*%
X118350000Y-47476346D02*
X119023654Y-48150000D01*
X134000000Y-48459438D02*
X134000000Y-46434314D01*
X119023654Y-48150000D02*
X120850000Y-48150000D01*
X118350000Y-46523654D02*
X118350000Y-47476346D01*
X135837438Y-49314035D02*
X134854597Y-49314035D01*
X134854597Y-49314035D02*
X134000000Y-48459438D01*
X121373654Y-43500000D02*
X118350000Y-46523654D01*
X131065686Y-43500000D02*
X121373654Y-43500000D01*
X120850000Y-48150000D02*
X122000000Y-47000000D01*
X134000000Y-46434314D02*
X131065686Y-43500000D01*
%TO.N,Net-(C1-EncBx)*%
X133500000Y-48525124D02*
X133500000Y-46500000D01*
X135237438Y-50262562D02*
X133500000Y-48525124D01*
X122500000Y-44000000D02*
X119500000Y-47000000D01*
X131000000Y-44000000D02*
X122500000Y-44000000D01*
X133500000Y-46500000D02*
X131000000Y-44000000D01*
%TO.N,Net-(C2-DirBx)*%
X157140000Y-55860000D02*
X139800000Y-55860000D01*
X158564365Y-53660000D02*
X157920000Y-54304365D01*
X157920000Y-54304365D02*
X157920000Y-55080000D01*
X161966346Y-53660000D02*
X158564365Y-53660000D01*
X157920000Y-55080000D02*
X157140000Y-55860000D01*
X166323654Y-48350000D02*
X165650000Y-49023654D01*
X139800000Y-55860000D02*
X138700000Y-54760000D01*
X165650000Y-49023654D02*
X165650000Y-49976346D01*
X168150000Y-48350000D02*
X166323654Y-48350000D01*
X165650000Y-49976346D02*
X161966346Y-53660000D01*
X169500000Y-47000000D02*
X168150000Y-48350000D01*
%TO.N,Net-(C4-EncAy)*%
X177255635Y-68900000D02*
X177900000Y-69544365D01*
X171264365Y-68900000D02*
X177255635Y-68900000D01*
X177900000Y-69544365D02*
X177900000Y-71100000D01*
X177900000Y-71100000D02*
X174500000Y-74500000D01*
X150560000Y-75000000D02*
X152210000Y-73350000D01*
X170620000Y-69544365D02*
X171264365Y-68900000D01*
X170620000Y-70314314D02*
X170620000Y-69544365D01*
X167584314Y-73350000D02*
X170620000Y-70314314D01*
X152210000Y-73350000D02*
X167584314Y-73350000D01*
%TO.N,Net-(C4-EncBy)*%
X150000000Y-79500000D02*
X148500000Y-78000000D01*
X177000000Y-74500000D02*
X175650000Y-75850000D01*
X161100000Y-78251471D02*
X161100000Y-78748529D01*
X160348529Y-79500000D02*
X150000000Y-79500000D01*
X148500000Y-77379079D02*
X149879079Y-76000000D01*
X148500000Y-78000000D02*
X148500000Y-77379079D01*
X149879079Y-76000000D02*
X150560000Y-76000000D01*
X161100000Y-78748529D02*
X160348529Y-79500000D01*
X163501471Y-75850000D02*
X161100000Y-78251471D01*
X175650000Y-75850000D02*
X163501471Y-75850000D01*
%TO.N,Net-(LS1-SCK)*%
X137000000Y-46050000D02*
X138450000Y-44600000D01*
X149227608Y-77500000D02*
X149102608Y-77625000D01*
X138450000Y-44600000D02*
X146600000Y-44600000D01*
X148000000Y-46000000D02*
X149000000Y-46000000D01*
X160500000Y-78487868D02*
X159512132Y-77500000D01*
X159512132Y-77500000D02*
X149227608Y-77500000D01*
X146600000Y-44600000D02*
X148000000Y-46000000D01*
%TO.N,Net-(LS1-MOSI)*%
X142488235Y-53511765D02*
X142488235Y-54011765D01*
X135884897Y-48387080D02*
X139271977Y-45000000D01*
X148000000Y-47000000D02*
X149000000Y-47000000D01*
X149000000Y-47000000D02*
X142488235Y-53511765D01*
X146000000Y-45000000D02*
X148000000Y-47000000D01*
X139271977Y-45000000D02*
X146000000Y-45000000D01*
X135884897Y-48418047D02*
X135884897Y-48387080D01*
%TO.N,Net-(LS2-SS{slash})*%
X117500000Y-49784365D02*
X122020000Y-54304365D01*
X117500000Y-46807968D02*
X117500000Y-49784365D01*
X121207968Y-43100000D02*
X117500000Y-46807968D01*
X150000000Y-45000000D02*
X148100000Y-43100000D01*
X126000000Y-67460000D02*
X128540000Y-70000000D01*
X122020000Y-54304365D02*
X122020000Y-62090000D01*
X148100000Y-43100000D02*
X121207968Y-43100000D01*
X126000000Y-66070000D02*
X126000000Y-67460000D01*
X122020000Y-62090000D02*
X126000000Y-66070000D01*
%TO.N,Net-(C1-DirBy)*%
X131199200Y-66493565D02*
X131199200Y-67404835D01*
X124560000Y-59854365D02*
X131199200Y-66493565D01*
X124560000Y-49560000D02*
X124560000Y-59854365D01*
X132694365Y-68900000D02*
X134075635Y-68900000D01*
X135600000Y-71100000D02*
X140140000Y-71100000D01*
X124500000Y-49500000D02*
X124560000Y-49560000D01*
X135000000Y-69824365D02*
X135000000Y-70500000D01*
X140140000Y-71100000D02*
X141240000Y-70000000D01*
X134075635Y-68900000D02*
X135000000Y-69824365D01*
X131199200Y-67404835D02*
X132694365Y-68900000D01*
X135000000Y-70500000D02*
X135600000Y-71100000D01*
%TO.N,Net-(C1-ENy)*%
X133399200Y-64899200D02*
X129640000Y-61140000D01*
X129640000Y-49640000D02*
X129500000Y-49500000D01*
X136160000Y-70000000D02*
X133399200Y-67239200D01*
X133399200Y-67239200D02*
X133399200Y-64899200D01*
X129640000Y-61140000D02*
X129640000Y-49640000D01*
%TO.N,Net-(C1-DirAy)*%
X138700000Y-70000000D02*
X138700000Y-60484365D01*
X132180000Y-54875635D02*
X132180000Y-51306346D01*
X129976346Y-48350000D02*
X128150000Y-48350000D01*
X130850000Y-49976346D02*
X130850000Y-49223654D01*
X138700000Y-60484365D02*
X134075635Y-55860000D01*
X130850000Y-49223654D02*
X129976346Y-48350000D01*
X133164365Y-55860000D02*
X132180000Y-54875635D01*
X134075635Y-55860000D02*
X133164365Y-55860000D01*
X128150000Y-48350000D02*
X127000000Y-49500000D01*
X132180000Y-51306346D02*
X130850000Y-49976346D01*
%TO.N,Net-(C2-DirAx)*%
X168350000Y-49023654D02*
X168350000Y-50650000D01*
X165467968Y-53532032D02*
X162660000Y-53532032D01*
X162660000Y-53532032D02*
X162660000Y-55215635D01*
X172000000Y-47000000D02*
X170650000Y-48350000D01*
X162660000Y-55215635D02*
X161615635Y-56260000D01*
X168350000Y-50650000D02*
X165467968Y-53532032D01*
X169023654Y-48350000D02*
X168350000Y-49023654D01*
X161615635Y-56260000D02*
X137660000Y-56260000D01*
X137660000Y-56260000D02*
X136160000Y-54760000D01*
X170650000Y-48350000D02*
X169023654Y-48350000D01*
%TO.N,Net-(C2-ENx)*%
X173350000Y-48150000D02*
X173350000Y-50150000D01*
X173350000Y-50150000D02*
X169840000Y-53660000D01*
X166184365Y-53660000D02*
X165200000Y-54644365D01*
X162300000Y-56200000D02*
X161840000Y-56660000D01*
X169840000Y-53660000D02*
X166184365Y-53660000D01*
X165200000Y-55215635D02*
X164215635Y-56200000D01*
X164215635Y-56200000D02*
X162300000Y-56200000D01*
X135520000Y-56660000D02*
X133620000Y-54760000D01*
X161840000Y-56660000D02*
X135520000Y-56660000D01*
X174500000Y-47000000D02*
X173350000Y-48150000D01*
X165200000Y-54644365D02*
X165200000Y-55215635D01*
%TO.N,Net-(C3-DirAy)*%
X164740000Y-71900000D02*
X166640000Y-70000000D01*
X126600000Y-71900000D02*
X164740000Y-71900000D01*
X124000000Y-74500000D02*
X126600000Y-71900000D01*
%TO.N,Net-(C3-ENy)*%
X124500000Y-71500000D02*
X162600000Y-71500000D01*
X162600000Y-71500000D02*
X164100000Y-70000000D01*
X121500000Y-74500000D02*
X124500000Y-71500000D01*
%TO.N,Net-(C3-DirBy)*%
X128700000Y-72300000D02*
X166880000Y-72300000D01*
X126500000Y-74500000D02*
X128700000Y-72300000D01*
X166880000Y-72300000D02*
X169180000Y-70000000D01*
%TO.N,Net-(C4-ENy)*%
X171500000Y-70000000D02*
X171720000Y-70000000D01*
X167000000Y-74500000D02*
X171500000Y-70000000D01*
%TO.N,Net-(C4-DirBy)*%
X172000000Y-74500000D02*
X176500000Y-70000000D01*
X176500000Y-70000000D02*
X176800000Y-70000000D01*
%TO.N,Net-(C4-DirAy)*%
X174000000Y-70000000D02*
X174260000Y-70000000D01*
X169500000Y-74500000D02*
X174000000Y-70000000D01*
%TD*%
M02*
