%TF.GenerationSoftware,KiCad,Pcbnew,8.0.9-8.0.9-0~ubuntu22.04.1*%
%TF.CreationDate,2025-03-21T08:59:58-04:00*%
%TF.ProjectId,WS_Wheel_PCB,57535f57-6865-4656-9c5f-5043422e6b69,rev?*%
%TF.SameCoordinates,Original*%
%TF.FileFunction,Paste,Top*%
%TF.FilePolarity,Positive*%
%FSLAX46Y46*%
G04 Gerber Fmt 4.6, Leading zero omitted, Abs format (unit mm)*
G04 Created by KiCad (PCBNEW 8.0.9-8.0.9-0~ubuntu22.04.1) date 2025-03-21 08:59:58*
%MOMM*%
%LPD*%
G01*
G04 APERTURE LIST*
G04 Aperture macros list*
%AMRoundRect*
0 Rectangle with rounded corners*
0 $1 Rounding radius*
0 $2 $3 $4 $5 $6 $7 $8 $9 X,Y pos of 4 corners*
0 Add a 4 corners polygon primitive as box body*
4,1,4,$2,$3,$4,$5,$6,$7,$8,$9,$2,$3,0*
0 Add four circle primitives for the rounded corners*
1,1,$1+$1,$2,$3*
1,1,$1+$1,$4,$5*
1,1,$1+$1,$6,$7*
1,1,$1+$1,$8,$9*
0 Add four rect primitives between the rounded corners*
20,1,$1+$1,$2,$3,$4,$5,0*
20,1,$1+$1,$4,$5,$6,$7,0*
20,1,$1+$1,$6,$7,$8,$9,0*
20,1,$1+$1,$8,$9,$2,$3,0*%
G04 Aperture macros list end*
%ADD10RoundRect,0.100000X0.675000X0.100000X-0.675000X0.100000X-0.675000X-0.100000X0.675000X-0.100000X0*%
%ADD11RoundRect,0.100000X-0.675000X-0.100000X0.675000X-0.100000X0.675000X0.100000X-0.675000X0.100000X0*%
G04 APERTURE END LIST*
D10*
%TO.C,LS3*%
X144675000Y-78525000D03*
X144675000Y-77875000D03*
X144675000Y-77225000D03*
X144675000Y-76575000D03*
X144675000Y-75925000D03*
X144675000Y-75275000D03*
X144675000Y-74625000D03*
X144675000Y-73975000D03*
X138925000Y-73975000D03*
X138925000Y-74625000D03*
X138925000Y-75275000D03*
X138925000Y-75925000D03*
X138925000Y-76575000D03*
X138925000Y-77225000D03*
X138925000Y-77875000D03*
X138925000Y-78525000D03*
%TD*%
D11*
%TO.C,LS1*%
X139325000Y-45450000D03*
X139325000Y-46100000D03*
X139325000Y-46750000D03*
X139325000Y-47400000D03*
X139325000Y-48050000D03*
X139325000Y-48700000D03*
X139325000Y-49350000D03*
X139325000Y-50000000D03*
X145075000Y-50000000D03*
X145075000Y-49350000D03*
X145075000Y-48700000D03*
X145075000Y-48050000D03*
X145075000Y-47400000D03*
X145075000Y-46750000D03*
X145075000Y-46100000D03*
X145075000Y-45450000D03*
%TD*%
%TO.C,LS2*%
X152325000Y-45450000D03*
X152325000Y-46100000D03*
X152325000Y-46750000D03*
X152325000Y-47400000D03*
X152325000Y-48050000D03*
X152325000Y-48700000D03*
X152325000Y-49350000D03*
X152325000Y-50000000D03*
X158075000Y-50000000D03*
X158075000Y-49350000D03*
X158075000Y-48700000D03*
X158075000Y-48050000D03*
X158075000Y-47400000D03*
X158075000Y-46750000D03*
X158075000Y-46100000D03*
X158075000Y-45450000D03*
%TD*%
D10*
%TO.C,LS4*%
X157675000Y-78525000D03*
X157675000Y-77875000D03*
X157675000Y-77225000D03*
X157675000Y-76575000D03*
X157675000Y-75925000D03*
X157675000Y-75275000D03*
X157675000Y-74625000D03*
X157675000Y-73975000D03*
X151925000Y-73975000D03*
X151925000Y-74625000D03*
X151925000Y-75275000D03*
X151925000Y-75925000D03*
X151925000Y-76575000D03*
X151925000Y-77225000D03*
X151925000Y-77875000D03*
X151925000Y-78525000D03*
%TD*%
M02*
